/* XPM */
static char *c6ffc8816fc14cd9de69f67272e9027a0QjnIjCLpiA1HHH6[] = {
/* columns rows colors chars-per-pixel */
"64 64 256 2 ",
"   c #080B00",
".  c #160C00",
"X  c #061700",
"o  c #0B1501",
"O  c #0D1B02",
"+  c #121302",
"@  c #131C03",
"#  c #171807",
"$  c #1B1C03",
"%  c #1C1D0B",
"&  c #1A1D11",
"*  c #231B05",
"=  c #271908",
"-  c #0D2202",
";  c #092501",
":  c #142303",
">  c #1C2403",
",  c #142B02",
"<  c #1B2C03",
"1  c #16230A",
"2  c #1B240B",
"3  c #162909",
"4  c #1C2B0B",
"5  c #0E3001",
"6  c #1C3302",
"7  c #193704",
"8  c #1D330A",
"9  c #1D2912",
"0  c #222303",
"q  c #222B03",
"w  c #2B2804",
"e  c #23240B",
"r  c #232C0C",
"t  c #2C2D0B",
"y  c #352806",
"u  c #243403",
"i  c #2B3404",
"p  c #233A05",
"a  c #273B07",
"s  c #23330B",
"d  c #2A320C",
"f  c #293B0D",
"g  c #343708",
"h  c #252716",
"j  c #232C12",
"k  c #2B2D14",
"l  c #342C14",
"z  c #243312",
"x  c #2B3313",
"c  c #2C3C13",
"v  c #2A3818",
"b  c #363A17",
"n  c #2E3722",
"m  c #393A23",
"M  c #44370A",
"N  c #573D0E",
"B  c #443A16",
"V  c #463C23",
"C  c #284406",
"Z  c #2B430C",
"A  c #354609",
"S  c #2C520F",
"D  c #37550A",
"F  c #2B4313",
"G  c #2B4515",
"H  c #344314",
"J  c #34431B",
"K  c #374918",
"L  c #395518",
"P  c #3D640F",
"I  c #394924",
"U  c #3B5527",
"Y  c #3C5424",
"T  c #3D5131",
"R  c #3E6226",
"E  c #454A0B",
"W  c #454817",
"Q  c #514D12",
"!  c #46571A",
"~  c #555B18",
"^  c #655919",
"/  c #48651A",
"(  c #516915",
")  c #484826",
"_  c #584B25",
"`  c #465828",
"'  c #555B28",
"]  c #4F4B32",
"[  c #4A5934",
"{  c #575A37",
"}  c #6B582D",
"|  c #496627",
" . c #556729",
".. c #4D722C",
"X. c #5A7729",
"o. c #4C6533",
"O. c #576937",
"+. c #5B7638",
"@. c #646A29",
"#. c #73682A",
"$. c #66782A",
"%. c #666A37",
"&. c #776A39",
"*. c #667838",
"=. c #767A38",
"-. c #4F5643",
";. c #675D44",
":. c #5A6845",
">. c #5D7543",
",. c #656946",
"<. c #657947",
"1. c #787848",
"2. c #6E7354",
"3. c #787859",
"4. c #856536",
"5. c #89774C",
"6. c #8A7E60",
"7. c #5F8434",
"8. c #688637",
"9. c #718E32",
"0. c #75873A",
"q. c #77A53A",
"w. c #6A8647",
"e. c #748849",
"r. c #6E9245",
"t. c #789749",
"y. c #6B8753",
"u. c #768A55",
"i. c #7A9656",
"p. c #7BA456",
"a. c #7B8965",
"s. c #7A9561",
"d. c #7DA863",
"f. c #879238",
"g. c #88AD3F",
"h. c #858547",
"j. c #928D48",
"k. c #85994A",
"l. c #858857",
"z. c #968C55",
"x. c #849858",
"c. c #989858",
"v. c #A78C59",
"b. c #86A54B",
"n. c #91AC4E",
"m. c #88A659",
"M. c #96A95B",
"N. c #98B65B",
"B. c #A5A85B",
"V. c #A5B959",
"C. c #918E6D",
"Z. c #879966",
"A. c #979B68",
"S. c #A39968",
"D. c #AE9975",
"F. c #8AA766",
"G. c #96A867",
"H. c #8BB365",
"J. c #94B36C",
"K. c #98B668",
"L. c #9CBB6B",
"P. c #8DA972",
"I. c #97AB75",
"U. c #8DBE70",
"Y. c #99B776",
"T. c #9BBB73",
"R. c #A7AA69",
"E. c #A6B868",
"W. c #B3B36C",
"Q. c #A8A979",
"!. c #A7B878",
"~. c #B4B979",
"^. c #D1A663",
"/. c #C7B275",
"(. c #B0C95B",
"). c #9AC46A",
"_. c #9CC574",
"`. c #9DD173",
"'. c #A2C26D",
"]. c #A9C869",
"[. c #B0CD6D",
"{. c #ABD26C",
"}. c #A4C374",
"|. c #A4CB74",
" X c #A3C47A",
".X c #AAC979",
"XX c #B6C978",
"oX c #AAD379",
"OX c #B5D77C",
"+X c #C8CA74",
"@X c #C4D579",
"#X c #CCEE78",
"$X c #9BB281",
"%X c #B3A78E",
"&X c #A7BA84",
"*X c #AFB08B",
"=X c #B6B985",
"-X c #C7B98C",
";X c #9FC588",
":X c #A7C586",
">X c #ACCD82",
",X c #B7C986",
"<X c #B4CC8B",
"1X c #ACD484",
"2X c #B3D484",
"3X c #BBD687",
"4X c #B4DB84",
"5X c #B4D48B",
"6X c #B5DA8B",
"7X c #BCDB8C",
"8X c #AECB93",
"9X c #B8C994",
"0X c #BAD894",
"qX c #B9E386",
"wX c #BDE38C",
"eX c #BDE197",
"rX c #C4C788",
"tX c #C4D889",
"yX c #D6D488",
"uX c #C8C997",
"iX c #D7C699",
"pX c #C6D997",
"aX c #D8D999",
"sX c #EDD698",
"dX c #C5E68A",
"fX c #D3E78C",
"gX c #CDF38E",
"hX c #C4E394",
"jX c #C8E798",
"kX c #CCE49C",
"lX c #D6E997",
"zX c #DAF398",
"xX c #EBF096",
"cX c #E8F796",
"vX c #CDD6A5",
"bX c #D9DAA5",
"nX c #E6D6A7",
"mX c #EDD9AE",
"MX c #CCE8A4",
"NX c #DAE9A6",
"BX c #D8F3A6",
"VX c #D8EEB5",
"CX c #E8E9A9",
"ZX c #E6F7A7",
"AX c #F5F5AB",
"SX c #ECE8B1",
"DX c #F8E7B6",
"FX c #E6F3B8",
"GX c #FAFBB8",
"HX c #D8DAC2",
"JX c #F4F1C7",
"KX c #FEFEC4",
"LX c #FBF8CA",
"PX c #FFFDD3",
"IX c #FDFADB",
"UX c #FFFCE7",
/* pixels */
"kXpXz O.Y.[ J L.!.+.[ s.J.1Xp.>.2 1 J.` b  XI >X1 jX>Xf 8X[ e.4 6 t I.Y.:XD q.h.XX5.,.H 6 r =Xr tX& &XZ.x = # I.Z.*.).SXe.v B L ",
"=X .O.v O.2.x - 3 4X# $X  0XP.5 Y.i <XY.o.I 8.# O > 7 L E.H.%X5.. b.}.d  .e.4XE.A ~ b.W ) 2 B.` D  .k 4 | [.aXK =.Y m t K.k e + ",
"2 ].: ). XB Y.> i.`.- o y.` X $X8 H : i.tXZ.qX-.[ < PX> m.VXOXc iX2XMX9X> O q.7XV ~.> k nX*X:.7Xr.W aXu f q.+.+ >X_.' | 1Xz <XaX",
"-.t.O / H O O { L 1 w.y.UXU O h.G @ gX.XL.2.W.OX# > 2 , @ U < FXk 2 O.< / OX9.< %.$ 6 ZXb c.6 , p F.Y _.5XJX: : : Z.bX1X2 D.< ) ",
"s :.m.K.=Xh -X*XY o.9XH. X: o L ,.  G O 6 eXm.,X0 3.k 7X6X$X@ }.& I.l 8 =.Q <.X.rXe + s.7 kXUXO.3X, c.i.nX< DXjX Xg l ,./.D.[ 0 ",
"<.<.t FXz.N.rX' pXZ.4Xx.2 , Z.L.1   }.wXoXD l.. E.PX_ < 9.%.z.} =.[.6 > kX| q.#.%X% XXO t.J.UXq.k o.  e.A.I.E.2XvXpXH $ j.n N.V.",
"n.pXh - &.r JXSXx |.|.).A.[ F.*.# 1 jX; S oXz.BXpXzXn.7X} uXe.h 3.@ , 0XI u.g r./.5 < > SX/ 2 hX:.kXW ! E.$.D 6 +.4 d t.~.e ' Z ",
"L !.v.H.K O `.6 i.% B I.8 x 9 +.@ O >.o.! OX .8 b.K.: 8.< h.t r.O.E.> OX4XMXV g K ;.e.` GXi o :X8 u s.zXw w.7.: 0XQ.  %Xj.[ o.@.",
"e.# A.e A.pX6X+ O.p Y.y.i.O.DXY.eXMXwXK L.8.*.0Xb i.I MXy.y =.wXY.aX .jXH.wX| 2 v gX6X@ A.%.8 i.2 h.C :XF.: m.: ` LXo.NXy x G.{ ",
"u.c iXDX-Xr.] <.1 H m.- X., +Xo >XH.`.N.w.6 $X=XbXu !.  + < P.X 1 6 3 K.k $.e vX3XO 4 2 5 ].- eX, uX<.+.hX8.< < D O.jXbXMX6Xa [ ",
"T d sXrX,.XX< , w.s }.5 2X1X3 @ X X 8 A 7 jXw.V.tXO.VXb.y g 1 ) 3Xn.G  Xr [ 6 t # h o @ O JX6XY.>XF.` @ ~.pXa Z.$.` bX<XX , m.E.",
"7X+.H oXlXT.a.1 o @ +.>XO oXX X 3 2./ : ).hX_ [. .5.kXL Q.*XhX: * I @ LXi.}.: 7 &X0X8.$ A. .|. XpX~.i L ! [.x rX@.1 s j ` O z 9 ",
"C ).> #XhX8 ,X6 o.-.@ + t.g # 7.2 G O pXL * aXGX6.DX,Xv.*.# G.l.} h PXb.x > > yX` c |.@ &Xa X.` q . x 1 p xXtXBX+.& + &Xy.8XmX1 ",
": m.:Xu...X 2 @ 0Xk p S C }.7X` k.p.R B iX-X3.S.) #.h.c r.X.z.f ,X7XZXe <XC Z W P.(.P.W <.Z.z ZXw W y VX/ x.tXw e.pX8X  % # Y.&X",
",.r m.3 qXw.o.c >Xw :.X O.D.x.<Xf G : L.S.Q.x.x.X.).: 7XtX6X@ c 7X6 n.%X> x w @ PXo + P.l.L   @ ) PXL ] T.0  .MX: CXW S.iXB 9X<X",
"K.*.:.c Z.6 a I . :XY.3 h : 2 +  X).6 f -X} J.%.J.u s : O.> Q.z.] 3X[.AX) G.% ~ ~ > u.5XY.y.3 K SX8. .dXu &X,X1 kX> u.A.,X<Xm._ ",
"!.` j @ J FX! <.4X: wXZ O o u $ o.R.Z.< 3X~ 3XT.-X+ ^ ZX> vX2Xy I.2 ! ).W.f.PX=   T.m LXDXL.JXGX| K [.( lXC 7X3X=.w ~ *XH.FX8 Y ",
"v h ] *.O.d tXyXbXm G LX2 v .XZX>., MXp jX.XOXt.6 H $.C MX2X@ n.uXD.%.,.tXtX' ;.  *.r ^ GXG.u.:.O.*.'.c.i.p.m.GXrX_ g N.l 7 m.W.",
"J.GX:Xs 2 1 _.A.8XbX3 Y.z vX< jXqXB , 4X$ - ,.P.$ + o X.0XZ.q.r M E l JXD S JXC.B ` t.>Xd ( V O T., @X) | > 7X@ GX^.C.0XoX .*.T.",
"{ B .XGXdX2 OXOXH.b I 4 > m., 8X8 [ P.@ T.C !., zXK f VX8.f.  W Y.cXw.T.lX' xXNX$ W.dXNX< PX;.| L.UX: / r.< vXVX  u.O +.m.i uX  ",
"i.w.XXX.+.S &Xr * ' o.L 2 v : :   %.t.Z jXW u.4 K.t 2 L dX] |.c oXwX) MXd K MXgX'.3XO.NXGXM.! 7XX.W.e @ 2.BX: X.X @ } <XE D ,X3X",
"e 9 F.H :.[ tX% / u.U @ , <XE ` x Q K V 3.tX[ 2 G.9X1.6 e.u e %.F.2 + jXe   i K > 3XA  .7XC U $.Q NX+ : j k.n.0 B.c O Z.* e =X` ",
"t.6 '.H hXcXg CXG.oXH.> 3Xc.7.'.OXjX).y E o 3XK.W.SX* k.n.W.0 K u.R.f >XlX6Xx.m.m.LX!.pX3X< rXn.. @ , G 6 gX,X0.X.uXUX!.^ VXd 1X",
":Xc r a.F.1X/ UX7XL.e T.$.} kXiXsXU < M.` t.=.8 @ 5.* :X: #.x.I w.6 s K.J.e u |.< NXA.xXW.} V.Q l c.!.> C.8 jXO.kXtXg D H.1XrXA ",
"Y.fX>.4 c >.4 vX!., %.:X2 )  Xw 0X8X6XG bXZ O.C qXe.* r > :XJ.<X!.p y.M.S 1 G.[ = : % k.=.9 W | l > -X) T.% LX&XPXr._.<X6 X.>Xo.",
"c %.m.d ` |.wXU XXMX0XF.Y.  b.H.I + @ 3 p #Xe : L M.< C - r.* 4 o ,.*.O.o D : o.1.F.q I lX% % aXH ,X' +.4 i.=X9.o H.# ( F.J.w.>X",
"K.z _.fX%.OX/ 8XgXOXu.o v c t.o q F.. 6X: + y.o.: z ..O Z =X0 [.!.0.- 6X+ FXo @ # 0 P.; 7Xs | t.< ~ E.m.} L.*.x.%.O.k X :X,X,Xs.",
"| 1 ,XE z .X' jXm.G.P.P.LXw x.gXLXCXW dX] *.O 3 J |  X6 F.jXpXZXaX1 BXzX) GXm.D , ! Z.q m.x fXX. .].W iXi.6.b @ CX~.: 3Xo ` h <.",
"L.< u.% o a 4 0X4XXXs L >.[.y LX_ w 7.tX<.7 O *X# 2.I.+X` u X.pXs.3 A 7XcXxX) wX0 2 G.2 2X  n.6X!.` M.u # pX@.xXrXZXh.&X!.bX*  X",
"K b M.%.F.> X F.dXX.4XJ.O fXa B.Y.2 gXO 7 8.H.4 7.8. Xf. .2 > xX<.8 8 g XXe h 8.< 0 6.,Xe.pXO $  .5Xl.W K F.6 b $ @ kX=.zX].m.a.",
"3._ ,X#.).2 < G.u p 4Xt. .` G VX1.2 o 2 I.c O Y ; y.y.f.8Xk.E.*.!.VXW kXE.H { u.X.5.5.lXlX# q : e.PXcX9.@ Q. .! SXdX..L a . g H.",
"=X-X.XE.j L 9 H i 5.X o.(.+ 8.`.pX| , ,.U r.7 - - T O oXgXlX#.C < oX0.XXM S O { c.Q S.# 1.= P.< GXCX,.` t b .XiXs., W pX^.N ,X! ",
"fX# f ZX5.!.Z.g &XXXx.m.].m.i.D Y 1 t.  s y.` o K , : 9X6X+.GXi E.tX8 gXv }.Q.* ,XGXB 5.g . GX+ XXb ) q }.O > *.: U g @ tX{ wXe.",
" .4X9 J +X3X] ,X<..X|.J.! m.2 |.' 3X8 | 1X@ C r.7 C *.y m.,.L.mXh SX.XQ z : XXC.0.rX .iX,XjXt.CX$.. *.. O.+ b I $ F.yX! t.ZX  ,X",
"` 7Xb.y.xXt  .J ! MXs : OXwXw.:.qX@ I 3 F J 2 1 8 k.< dXdXt K n.FXJ b XXMXi.o.o E./ Z.X.$.> 9.9XA.S.zX&.S.AXj.o.h kX* ZX+ 0.uXvX",
"pXjXh e.*.S.t.X.*.$ +.h p qX& 3 n.`.vXL aX[ 0X& J x F.u 9.xX,.dXe GXg yX= } c +./ =.m ! P.i x xX/.Q 9.I.jXCX .jXr _ SXj.sXuXV.%X",
"NXx.H.I  .Y.&X(.=Xn.%.VXi.dX8X> r F.4 6 M k.d.>XfXXXu jXA u @ K.L w C A e @.m z GX@., A =.  G.E.xXv.vXyX| G N.: /.@ ^ b.,X* +XIX",
"I < p.J KX1X0 PX' AX%.c.dXW 7 {.XXO.2.: | F , 6XjXa ( 0X# u.g tX> uXq OXsX@X$ % $ ~ K.i.o.< cX> zXAXh.o.6 k.: > q $ }.>Xm.W.E ,.",
"<.J  X3.j.GXR.xXi.cXi wX5 3 u ! dX/ e d 6 | -XJ.@ 9.k b *.u.OXb |.G.7 @.y 7Xi > <.:., ! : 4 2X) f oXKX=XQ *.@Xr [.IXb %.v 1.{ W.",
"m.1 y.jXF (.*.A H 6 y.f ).s @ w...8 D @XKXtXjXN.K.IXMX6 > < Z @ , < [ C 6 ! 5X! ZX|.Q.$ O xXpX4XfX: jXXXX.y j I.. 5.C.d + i y BX",
"W.% I m Z.ZXe.b d F.g.*.v m.h.O X.X.! s s = _ hXK ! h.fXb PX9 :X: > <.7XgXs 6 mXpXFX5 3 XXE #XPXA @ < : ,.* Z.JXc.XX` Q u.M.%.~.",
"o.r.d.oXy.%.M.!.7 R.< 6 _._.S Y.W 4X_.C 2Xf W @ dX X^ M.z.DX: -X(.>X+Xt.< Q D @ MX8.m.pX@XN.D y *.u.m.CX3XlX~._ W l pXm [.| 9.<.",
"c 1Xu.2 J.n 0X9 J.+.p dX8XF.u.i.$.3 G O tXJ.O ` VX5 ' o.X w.F.e @ @ *.MX+.U P.O > } L zXo > 9.zXG.E.$ A jXg 0 XX!.5.tXo  .5.9XW ",
"b.>.X z 1 H.>X1 ) , / Z.3.w ZXE.7.) 9.4X1X}.XXpX# UXmXY.$ | h I Y.g 0.t 8XO n J O q !., 4 6 4 CX@ . H 8.R.* 1.LX#.V 9Xv.y B.5X~ ",
"<., [ i.x w.1X:Xy.+XZ.K SX! yX>.OX/ xX@ 1 XXD !.4 2.& -.6 t <.{ GXi r i K.6 + :.$.xXb ' i 2 h.1.3Xw k.rXyXN.S.#.JXJ 5.$ q $.J M.",
"x.Y Z.+.|.4X<.%.jX+.].].r xXT.>.3 H.tX9.nX|.4 q G.h HXT w.b [ rX&.g v.L.: h % ].nXg E.R.z.,X4.y l.y rXW.zX=.x.=.G.jXT.a 3XyX*.b ",
"f oXi.jX<.1 gXX.8.L bX;XtXi.O  XJ zXV.R.Y.ZX%.C f sX3 r *X.XO.U w.u.< q GX/ XX0 q CXC X.tXi A _ GXv.E xXW NXW.<XpXi.C 7XO.AX>XH.",
"}.@ 1X: 3 2X8  XOXhXr oXd.V.jX).s O  .aXOX@Xu.gXw - zX7 hX+.u !.>X=.kXb {.'.nXXX5X| b Q.g R.PXpXg A.uX*.w.A J.G.x.CX) ! *Xd.c ZX",
"~.5Xj P.hX3 i.1 BXW.b O.aXKX+.1X1XF. .u.J U dXt oXk ` m.| FXB tX7X7XX s s t AXi mXkXu.o E =XLX ._ g 9.tXdXdXXXW -X= V.B.^ J %.mX",
"> q.r.1 J.: 3XoX+.L KXp , f c J.z > U | w.4.A I 1.> s uXk d qXI.K wXC jX@XfXt i.uX8Xd ! r.pXQ.G.l.M * g A d k.aXaXy yXB S.*.iXNX",
"+.Y p eX:XwXe 2 X.l.6X- 7.F.0XT.4Xq.6.l.u.o.0XtXk Z.> CXu 8.!.,XOXO hXs *.F i.0XpXbXg jX8.@ 7X=X4  .Z.i ' p tXG.=X;.v.v M LXd aX",
"O.}.: : .X8 [.Y Y _.cXoX9 )._.s.: < =.3.9 tXI.q O.^ x.q I.W x MX` s N.7XNXf.2.OX*.nX@XW PXM < / b q 1XtXI.A A.l D.DX/.r X.u f : ",
"r v 7 &Xv 3 P.` T.S l o.I +.4 _.AXd f tX1 k ..r.kX< ( <.+XOX/.g =.=XJ.D E.1 3XlXo.t C W.0XvXm.NX9.0 l.$ o o DXIXnXfX5.w.jXK.9 <.",
"tX7 ..8.S ;X..> , - OXt._.a.+.H.tX5.h !.zXk X a h @ O.jXAXgXuX9XK.K.w.BXL.gX2.c 5.1XXXdX%Xj 3 e.k.rXp > h & D.DXc.K.L +.i.f $ G ",
"_ '.G 3 G 0X5 C t 1XY.7.w.p.9 H./.fX@ b %X< U | =XJ f XX, zXkX3XGXlXz ` | < N !.&.0XO.m.3 z A 4 k.bXz.G.u.DXe 2 0 ) I 0.0. . XpX",
", K.H.).O.y.4 U U.y.).6X..C >.7 | hX7X.X' JXY.W.G.L Z A J dXKXPXM OXk < *.@.t e.&..XjX.XK M.KXs u.k.BX%.1.H % $ ,Xt < ZXH.6 4XO.",
"6X1 9 i.P.; z *.@ wXOXc eXdX+.y z gXeXg j =.3 NX7XJ.oXr JX~.E PXXX> u.v pX6 H IXOXq oXX.X.( dXMX< 2X*.) G.E !., G.' O.K.bXJ w.J ",
"I v ).7.n - qXb ; [ 7 Q.eX9 z :.Z.wXgXXXw q Y.S c a kXs 6XrXM.aX$ 9 :Xr 8 dX:XlXZXZ.=Xs < XXI SX*XS.< hX#.i lXA @.8.` 2 pX` u H.",
"1 {.K T.P., |.Z c D.K 5XJ > 8 s Q S.f 5Xi., !.OXqXFXd.7 Y.hXO.z &.o q $ - O.c.! m.m.: 5 < ~ z y.h.! G.T.%.o.}.qXPXp rX` n =XF.:.",
"N.O.F L T F o 6XR :XNXs OX! ) 3 sX..zX% 6X:XO e.pX, wX4XVXpXw @ qXr.<  .nX9 b f M.,Xc l.E.oXp j.< SXd b.B.tXc x.@ L.) pX# o.X.S ",
"` qXi._.Z 1 o.oX7 9X| ).+X*XXX7.).xX6XpXP 6X!.@ i.L.|.0XG.2.aX7X8 $.@Xs e.I - ].m._.VXZ.@X6 9.!.b B.r >XI ).J M.8.Y KX< 3 ' w.S.",
"oX_.` I.`._.E._.H.d.k 1XZ.0 J R =X4XlXw c Z.0XK >X{.#XO ` u.] ..tX5XMX4 H.=X% e.{.# ( H $.u ~ rX. tX2 Y .X3X2 rXS < <., e.J v n.",
"k w.x.8 &XF.1 1 +.1X9 :Xa y.8 BX0X_.K F.GXiX2 I { 3.X.).Z.'.0 L Z 8 I , i.Y.@ s 3 # >.u 5.p NXpX .3.,.y.}.2 3 1...o J A kXO.Y *.",
"F `.Y J.x T.A G 2 4 3 , LX8 m..X7 4 cX1Xo.u.u.* J.| _.+.x.G.=.|.PX  >.tXo N.o Y.H =.a O.2.h.E.d <.bXh tX> i d ,Xw.9 [  .m.J.I.3 "
};
