/* XPM */
static char *_9d0498dd0e244fefb46e35f122d628fo4TmeVJa4sP0hrU4[] = {
/* columns rows colors chars-per-pixel */
"64 64 183 2 ",
"   c #06070A",
".  c #0A0B0F",
"X  c #0D0F14",
"o  c #131417",
"O  c #171516",
"+  c #1A1015",
"@  c #19171B",
"#  c #1D141A",
"$  c #1A181B",
"%  c #1F1C1F",
"&  c #2B161C",
"*  c #201D1E",
"=  c #2D1821",
"-  c #371E24",
";  c #3C1B23",
":  c #3E1D27",
">  c #1D2421",
",  c #242022",
"<  c #252023",
"1  c #272222",
"2  c #2C2626",
"3  c #232924",
"4  c #28262A",
"5  c #2A2E28",
"6  c #322224",
"7  c #352529",
"8  c #372528",
"9  c #3A2228",
"0  c #332929",
"q  c #322A2A",
"w  c #362D2E",
"e  c #3A2829",
"r  c #3C2A2D",
"t  c #2E312C",
"y  c #2D392D",
"u  c #30322B",
"i  c #36362F",
"p  c #2C2C30",
"a  c #3C3131",
"s  c #3F3030",
"d  c #3C3737",
"f  c #3B3A33",
"g  c #4A1D25",
"h  c #571E24",
"j  c #4C2526",
"k  c #44222B",
"l  c #4E222E",
"z  c #5A222B",
"x  c #58262B",
"c  c #49382B",
"v  c #452A30",
"b  c #562B30",
"n  c #5D2C35",
"m  c #473134",
"M  c #413436",
"N  c #4E3234",
"B  c #433D3E",
"V  c #483939",
"C  c #503137",
"Z  c #593C32",
"A  c #52393C",
"S  c #67232B",
"D  c #68242D",
"F  c #75252D",
"G  c #6A2632",
"H  c #622E34",
"J  c #672F36",
"K  c #6E2F33",
"L  c #792934",
"P  c #6D363B",
"I  c #603B3E",
"U  c #7A3039",
"Y  c #3A4334",
"T  c #3C413D",
"R  c #46423B",
"E  c #70773E",
"W  c #4A3C43",
"Q  c #5C3A41",
"!  c #783741",
"~  c #4E4F47",
"^  c #4A494C",
"/  c #534141",
"(  c #524444",
")  c #5C4745",
"_  c #5A4149",
"`  c #544B4C",
"'  c #514E4F",
"]  c #5D4C4C",
"[  c #53524B",
"{  c #525648",
"}  c #5B554D",
"|  c #5A5D4F",
" . c #575353",
".. c #575B54",
"X. c #5A5F59",
"o. c #5A5D5F",
"O. c #6D4442",
"+. c #684344",
"@. c #6A4D4C",
"#. c #754F42",
"$. c #774C4B",
"%. c #78484B",
"&. c #6B524D",
"*. c #77574C",
"=. c #625151",
"-. c #605252",
";. c #675757",
":. c #695054",
">. c #625A5A",
",. c #6C5C5C",
"<. c #785454",
"1. c #725F55",
"2. c #566858",
"3. c #666956",
"4. c #61635C",
"5. c #69655E",
"6. c #6D6262",
"7. c #696768",
"8. c #716262",
"9. c #766767",
"0. c #706B6B",
"q. c #756F6F",
"w. c #7B6D6D",
"e. c #6A7465",
"r. c #7B7373",
"t. c #7C7373",
"y. c #797C75",
"u. c #8B2426",
"i. c #82262C",
"p. c #8F282B",
"a. c #952C2F",
"s. c #852A33",
"d. c #872B36",
"f. c #942C35",
"g. c #873238",
"h. c #9E3B3E",
"j. c #A02D34",
"k. c #AD2F34",
"l. c #BA3033",
"z. c #D0171D",
"x. c #EE0C11",
"c. c #844338",
"v. c #815B39",
"b. c #944249",
"n. c #90554C",
"m. c #895150",
"M. c #965F5C",
"N. c #A14F42",
"B. c #B75A4C",
"V. c #806157",
"C. c #9B7050",
"Z. c #996E69",
"A. c #86776F",
"S. c #97736A",
"D. c #8F7E7D",
"F. c #A36E68",
"G. c #B07C73",
"H. c #D54F40",
"J. c #77837A",
"K. c #908B55",
"L. c #938366",
"P. c #808677",
"I. c #95907E",
"U. c #A29C77",
"Y. c #BDBC76",
"T. c #888484",
"R. c #9F9A88",
"E. c #BB9486",
"W. c #A3A382",
"Q. c #ACA682",
"!. c #B5B08D",
"~. c #CA998A",
"^. c #C8988D",
"/. c #D2948C",
"(. c #DCAE9D",
"). c #E7BBAB",
"_. c #CDCD8C",
"`. c #C9C492",
"'. c #E3DD96",
"]. c #D2D2AB",
"[. c #E1C6A0",
"{. c #EAE4A1",
"}. c #F5D7CB",
/* pixels */
"T.T.T.T.T.T.T.T.T.T.T.T.T.T.T.T.T.T.T.T.T.T.T.T.T.T.T.T.T.T.T.T.T.T.T.T.T.T.T.T.T.T.T.T.T.T.T.T.T.T.T.T.T.T.T.T.T.T.T.T.T.T.T.T.",
"T.T.T.T.T.T.T.T.T.T.T.T.T.T.T.T.T.T.T.T.T.T.T.T.T.T.T.T.T.T.T.T.T.T.T.T.T.T.T.T.T.T.T.T.T.T.T.T.T.T.T.T.T.T.T.T.T.T.T.T.T.T.T.T.",
"T.T.T.T.T.T.T.T.T.T.T.T.T.T.T.T.T.T.T.T.T.T.T.T.T.T.T.T.T.T.T.T.T.T.T.T.T.T.T.T.T.T.T.T.T.T.T.T.T.T.T.T.T.T.T.T.T.T.T.T.T.T.T.T.",
"T.T.T.T.T.T.T.T.T.T.T.T.T.T.T.T.T.T.T.T.T.T.T.T.T.T.T.T.T.T.T.T.T.T.T.T.T.T.T.T.T.T.T.T.T.T.T.T.T.T.T.T.T.T.T.T.T.T.T.T.T.T.T.T.",
"T.T.T.T.T.T.T.T.T.T.T.T.T.T.T.T.T.T.T.T.T.T.T.T.T.T.T.T.T.T.T.T.T.T.T.T.T.T.T.T.T.T.T.T.T.T.T.T.T.T.T.T.T.T.T.T.T.T.T.T.T.T.T.T.",
"T.T.T.T.T.T.T.T.T.T.T.T.T.T.T.T.T.T.T.T.T.T.T.T.T.T.T.T.T.T.T.T.T.T.T.T.T.T.T.T.T.T.T.T.T.T.T.T.T.T.T.T.T.T.T.T.T.T.T.T.T.T.T.T.",
"T.T.T.T.T.T.T.T.T.T.T.T.T.T.T.T.T.T.T.T.T.T.T.T.T.T.T.T.T.T.T.T.T.T.T.T.T.T.T.T.T.T.T.T.T.T.T.T.T.T.T.T.T.T.T.T.T.T.T.T.T.T.T.T.",
"T.T.T.T.T.T.T.T.T.T.T.T.T.T.T.T.T.T.T.T.T.T.T.T.T.T.T.T.T.T.T.T.T.T.T.T.T.T.T.T.T.T.T.T.T.T.T.T.T.T.T.T.T.T.T.T.T.T.T.T.T.T.T.T.",
"T.T.T.T.T.T.T.T.T.T.T.T.T.T.T.T.T.T.T.T.T.T.T.T.T.T.T.T.T.T.T.T.T.T.T.T.T.T.T.T.T.T.T.T.T.T.T.T.T.T.T.T.T.T.T.T.T.T.T.T.T.T.T.T.",
"T.T.T.T.T.T.T.T.T.T.T.T.T.T.T.T.T.T.T.T.T.T.T.T.T.T.T.T.T.T.T.T.T.T.T.T.T.T.T.T.T.T.R.I.T.T.T.T.T.T.T.T.T.T.T.T.T.T.T.T.T.T.T.T.",
"T.T.T.T.T.T.T.T.T.T.T.T.T.T.T.T.T.T.T.T.T.T.T.T.T.T.T.T.T.T.T.T.T.T.T.T.T.T.T.T.T.I.H./.T.T.T.T.T.T.T.T.T.T.T.T.T.T.T.T.T.T.T.T.",
"T.T.T.T.T.T.T.T.T.T.T.T.T.T.T.T.T.T.T.T.T.T.T.T.T.T.T.T.T.T.T.T.T.T.T.T.T.T.T.T.T.U.z.x.T.T.T.T.T.T.T.T.T.T.T.T.T.T.T.T.T.T.T.T.",
"T.T.T.T.T.T.T.T.T.T.T.T.T.T.T.T.T.T.T.T.T.T.T.T.T.T.T.T.T.T.T.T.T.T.T.T.T.T.T.T.T.I.[.b.T.T.T.T.T.T.T.T.T.T.T.T.T.T.T.T.T.T.T.T.",
"T.T.T.T.T.T.T.T.T.T.T.T.T.T.T.T.T.T.T.T.T.T.T.T.T.T.T.T.T.T.T.T.T.T.T.T.T.T.T.T.T.T.P.!.T.T.T.T.T.T.T.T.T.T.T.T.T.T.T.T.T.T.T.T.",
"T.T.T.T.T.T.T.T.T.T.T.T.T.T.T.T.T.T.T.T.T.T.T.T.T.T.T.T.T.T.T.T.T.T.T.T.T.T.T.T.T.T.^ ^ T.T.T.T.T.T.T.T.T.T.T.T.T.T.T.T.T.T.T.T.",
"T.T.T.T.T.T.T.T.T.T.T.T.T.T.T.T.T.T.T.T.T.T.T.T.T.T.T.T.T.T.T.T.T.T.T.T.T.T.T.T.T.T.`.!.T.T.T.T.T.T.T.T.T.T.T.T.T.T.T.T.T.T.T.T.",
"T.T.T.T.T.T.T.T.T.T.T.T.T.T.T.T.T.T.T.T.T.T.T.T.T.T.T.T.T.T.T.T.T.T.T.T.T.T.T.T.T.2._.{ T.T.T.T.T.T.T.T.T.T.T.T.T.T.T.T.T.T.T.T.",
"T.T.T.T.T.T.T.T.T.T.T.T.T.T.T.T.T.T.T.T.T.T.T.T.T.T.T.T.T.T.T.T.T.T.T.T.T.T.T.T.T.y.| J.Q.T.T.T.T.T.T.T.T.T.T.T.T.T.T.T.T.T.T.T.",
"T.T.T.T.T.T.T.T.T.T.T.T.T.T.T.T.T.T.T.T.T.T.T.T.T.T.T.T.T.T.T.T.T.T.T.T.T.T.T.T.T.T.3.Y.W.T.T.T.T.T.T.T.T.T.T.T.T.T.T.T.T.T.T.T.",
"T.T.T.T.T.T.T.T.T.T.T.T.T.T.T.T.T.T.T.T.T.T.T.T.T.T.T.y.} -.t.T.T.T.T.T.T.T.T.T.T.T.K.2.T.T.T.T.T.T.T.T.T.T.T.T.T.T.T.T.T.T.T.T.",
"T.T.T.T.T.T.T.T.T.T.T.T.T.T.T.T.T.T.T.T.T.T.T.T.T.T.T.y.,.;.( r.T.T.T.T.T.T.T.T.T.T.E o.T.T.T.T.T.T.T.T.T.T.T.T.T.T.T.T.T.T.T.T.",
"T.T.T.T.T.T.T.T.T.T.T.T.T.T.T.T.T.T.T.T.T.T.T.T.T.T.T.9.9.] w.M t.T.T.T.T.T.T.T.T.T.^ ^ T.T.T.T.T.T.T.T.T.T.T.T.T.T.T.T.T.T.T.T.",
"T.T.T.T.T.T.T.T.T.T.T.T.T.T.T.T.T.T.T.T.T.T.T.T.T.T.t.w.8.w.e 6 V 0.T.T.T.T.T.T.T.T.f ^ T.T.T.T.T.T.T.T.T.T.T.T.T.T.T.T.T.T.T.T.",
"T.T.T.T.T.T.T.T.T.T.T.T.T.T.T.T.T.T.T.T.T.T.T.T.T.5.w.8.8.) m.$.e R T.T.T.T.T.T.T.T.Y ^ T.T.T.T.T.T.T.T.T.T.T.T.T.T.T.T.T.T.T.T.",
"T.T.T.T.T.T.T.T.T.T.T.T.T.T.T.T.T.T.T.T.T.T.T.T.T.| ] ;.r G.(.}.v d 4.T.T.T.T.T.T.T.Y ^ T.T.T.T.T.T.T.T.T.T.T.T.T.T.T.T.T.T.T.T.",
"T.T.T.T.T.T.T.T.T.T.T.T.T.T.T.T.T.T.T.T.T.T.T.T.T.d ;.A H P ~.M.6 $  .T.T.T.T.T.T.T.u ^ T.T.T.T.T.T.T.T.T.T.T.T.T.T.T.T.T.T.T.T.",
"T.T.T.T.T.T.T.T.T.T.T.T.T.T.T.T.T.T.T.T.T.T.T.T.T.T.0 r ! ).~.^.&.< ..T.T.T.T.T.T.T.< ^ T.T.T.T.T.T.T.T.T.T.T.T.T.T.T.T.T.T.T.T.",
"T.T.T.T.T.T.T.T.T.T.T.T.T.T.T.T.T.T.T.T.T.T.T.T.T.@.Z 9 b F.M.M.% m c 7.T.T.T.T.T.T.o ^ T.T.T.T.T.T.T.T.T.T.T.T.T.T.T.T.T.T.T.T.",
"T.T.T.T.T.T.T.T.T.T.T.T.T.T.T.T.T.T.T.T.T.T.T.T.X.l E D S g %.e U Q 1.C y.T.T.T.T.D.X ^ T.T.T.T.T.T.T.T.T.T.T.T.T.T.T.T.T.T.T.T.",
"T.T.T.T.T.T.T.T.T.T.T.T.T.T.T.T.T.T.T.T.T.T.T.0.7 n P V.l.p.J U d.#.n.G : 7.T.T.6.E.# 6.T.T.T.T.T.T.T.T.T.T.T.T.T.T.T.T.T.T.T.T.",
"T.T.T.T.T.T.T.T.T.T.T.T.T.T.T.T.T.T.T.T.T.T.^ < < / j.v.1.B.d.c.d.'.d.j.Q 0 5.` ,.<.b 2.T.T.T.T.T.T.T.T.T.T.T.T.T.T.T.T.T.T.T.T.",
"T.T.T.T.T.T.T.T.T.T.T.T.T.T.T.T.T.T.T.T.T.r.;.w / P k.l.N.*.A.{.L.! a.l.( g ] ;./ * X e.T.T.T.T.T.T.T.T.T.T.T.T.T.T.T.T.T.T.T.T.",
"T.T.T.T.T.T.T.T.T.T.T.T.T.T.T.T.T.T.T.T.T.N 9.< v I f.l.l.d._ ].C.d.l.g.d.= w -.0 $ X e.T.T.T.T.T.T.T.T.T.T.T.T.T.T.T.T.T.T.T.T.",
"T.T.T.T.T.T.T.T.T.T.T.T.T.T.T.T.T.T.T.T.T.t -.e O x l.l.l.l.f.#.d.d.f.l.G X V / 5 X X y.T.T.T.T.T.T.T.T.T.T.T.T.T.T.T.T.T.T.T.T.",
"T.T.T.T.T.T.T.T.T.T.T.T.T.T.T.T.T.T.T.T.-.;.( < O . u.l.k.l.l.j.d.d.l.h.& X V q = X X T.T.T.T.T.T.T.T.T.T.T.T.T.T.T.T.T.T.T.T.T.",
"T.T.T.T.T.T.T.T.T.T.T.T.T.T.T.T.T.T.T.T./ ] 8.q * X X F l.l.k.a.d.d.L + X X o $ $ X X T.T.T.T.T.T.T.T.T.T.T.T.T.T.T.T.T.T.T.T.T.",
"T.T.T.T.T.T.T.T.T.T.T.T.T.T.T.T.T.T.T.T.0 ] w./ 0 % o X D k.l.d.d.W   X X X 3 $ $ ^ X T.T.T.T.T.T.T.T.T.T.T.T.T.T.T.T.T.T.T.T.T.",
"T.T.T.T.T.T.T.T.T.T.T.T.T.T.T.T.T.T.T.y.< w.Z.S.0 = @ X X # x d.:.. X X X 7.7.^ 5 ^ X T.T.T.T.T.T.T.T.T.T.T.T.T.T.T.T.T.T.T.T.T.",
"T.T.T.T.T.T.T.T.T.T.T.T.T.T.T.T.T.T.T.^ / 4 G.^.R $ > X X X X # X X X X ^ T.T.T.T.T.X T.T.T.T.T.T.T.T.T.T.T.T.T.T.T.T.T.T.T.T.T.",
"T.T.T.T.T.T.T.T.T.T.T.T.T.T.T.T.T.T.T.X.0 o O.O.P o X X $ $ $ $ X X X X ^ T.T.T.T.T.$ T.T.T.T.T.T.T.T.T.T.T.T.T.T.T.T.T.T.T.T.T.",
"T.T.T.T.T.T.T.T.T.T.T.T.T.T.T.T.T.T.T.T.5 * X X X X X X X o 1 1 1 1 o X 2.T.T.T.T.e.# T.T.T.T.T.T.T.T.T.T.T.T.T.T.T.T.T.T.T.T.T.",
"T.T.T.T.T.T.T.T.T.T.T.T.T.T.T.T.T.T.T.T.T * % X p o X X % 1 1 1 1 1 $ X y.T.T.T.T.e.$ T.T.T.T.T.T.T.T.T.T.T.T.T.T.T.T.T.T.T.T.T.",
"T.T.T.T.T.T.T.T.T.T.T.T.T.T.T.T.T.T.T.T.> X.X.7.i o X o 1 1 1 2 1 1 1 X T.T.T.T.T. .$ T.T.T.T.T.T.T.T.T.T.T.T.T.T.T.T.T.T.T.T.T.",
"T.T.T.T.T.T.T.T.T.T.T.T.T.T.T.T.T.T.T.7.T.T.T.q.a X 1 $ 1 1 1 2 0 1 1 o ^ T.T.T.T. .5 T.T.T.T.T.T.T.T.T.T.T.T.T.T.T.T.T.T.T.T.T.",
"T.T.T.T.T.T.T.T.T.T.T.T.T.T.T.T.T.T.T.T.T.T.T.[ , $ % 1 1 1 1 1 2 r 1 * y T.T.T.T. .Y T.T.T.T.T.T.T.T.T.T.T.T.T.T.T.T.T.T.T.T.T.",
"T.T.T.T.T.T.T.T.T.T.T.T.T.T.T.T.T.T.T.T.T.T.T.r $ 1 $ 1 1 1 1 1 1 2 w w f T.T.T.T.' ' T.T.T.T.T.T.T.T.T.T.T.T.T.T.T.T.T.T.T.T.T.",
"T.T.T.T.T.T.T.T.T.T.T.T.T.T.T.T.T.T.T.T.T.T.>.0 o 1 X > w 1 1 w 2 1 2 a a ~ T.T.T. .' T.T.T.T.T.T.T.T.T.T.T.T.T.T.T.T.T.T.T.T.T.",
"T.T.T.T.T.T.T.T.T.T.T.T.T.T.T.T.T.T.T.T.T.T.q.X % % X = a q 1 r a u 1 r < B T.T.T.^ ^ T.T.T.T.T.T.T.T.T.T.T.T.T.T.T.T.T.T.T.T.T.",
"T.T.T.T.T.T.T.T.T.T.T.T.T.T.T.T.T.T.T.T.T.T.T. .< o X X w r 2 2 a a w o X 2.T.T.T.^ ^ T.T.T.T.T.T.T.T.T.T.T.T.T.T.T.T.T.T.T.T.T.",
"T.T.T.T.T.T.T.T.T.T.T.T.T.T.T.T.T.T.T.T.T.T.T. .$ X X X $ q a 5 4 w a a # X 7.T.T.^ ^ T.T.T.T.T.T.T.T.T.T.T.T.T.T.T.T.T.T.T.T.T.",
"T.T.T.T.T.T.T.T.T.T.T.T.T.T.T.T.T.T.T.T.T.T.T.0.o X X X X 2 < = 2 1 w a a = X p y.^ ^ T.T.T.T.T.T.T.T.T.T.T.T.T.T.T.T.T.T.T.T.T.",
"T.T.T.T.T.T.T.T.T.T.T.T.T.T.T.T.T.T.T.T.T.T.T.T.X X y > X @ j z e 1 = @ 5 J - # l X ^ T.T.T.T.T.T.T.T.T.T.T.T.T.T.T.T.T.T.T.T.T.",
"T.T.T.T.T.T.T.T.T.T.T.T.T.T.T.T.T.T.T.T.T.T.T.T.2.^ 7.T.7.^ p h ; k = = p.i.g d.& ^ 7.T.T.T.T.T.T.T.T.T.T.T.T.T.T.T.T.T.T.T.T.T.",
"T.T.T.T.T.T.T.T.T.T.T.T.T.T.T.T.T.T.T.T.T.T.T.T.T.T.T.T.T.T.T.5 5 # 9 J D p T.^ 7.T.T.T.T.T.T.T.T.T.T.T.T.T.T.T.T.T.T.T.T.T.T.T.",
"T.T.T.T.T.T.T.T.T.T.T.T.T.T.T.T.T.T.T.T.T.T.T.T.T.T.T.T.T.T.T.T.T.e.X.^ ^ T.T.T.T.T.T.T.T.T.T.T.T.T.T.T.T.T.T.T.T.T.T.T.T.T.T.T.",
"T.T.T.T.T.T.T.T.T.T.T.T.T.T.T.T.T.T.T.T.T.T.T.T.T.T.T.T.T.T.T.T.T.T.T.T.T.T.T.T.T.T.T.T.T.T.T.T.T.T.T.T.T.T.T.T.T.T.T.T.T.T.T.T.",
"T.T.T.T.T.T.T.T.T.T.T.T.T.T.T.T.T.T.T.T.T.T.T.T.T.T.T.T.T.T.T.T.T.T.T.T.T.T.T.T.T.T.T.T.T.T.T.T.T.T.T.T.T.T.T.T.T.T.T.T.T.T.T.T.",
"T.T.T.T.T.T.T.T.T.T.T.T.T.T.T.T.T.T.T.T.T.T.T.T.T.T.T.T.T.T.T.T.T.T.T.T.T.T.T.T.T.T.T.T.T.T.T.T.T.T.T.T.T.T.T.T.T.T.T.T.T.T.T.T.",
"T.T.T.T.T.T.T.T.T.T.T.T.T.T.T.T.T.T.T.T.T.T.T.T.T.T.T.T.T.T.T.T.T.T.T.T.T.T.T.T.T.T.T.T.T.T.T.T.T.T.T.T.T.T.T.T.T.T.T.T.T.T.T.T.",
"T.T.T.T.T.T.T.T.T.T.T.T.T.T.T.T.T.T.T.T.T.T.T.T.T.T.T.T.T.T.T.T.T.T.T.T.T.T.T.T.T.T.T.T.T.T.T.T.T.T.T.T.T.T.T.T.T.T.T.T.T.T.T.T.",
"T.T.T.T.T.T.T.T.T.T.T.T.T.T.T.T.T.T.T.T.T.T.T.T.T.T.T.T.T.T.T.T.T.T.T.T.T.T.T.T.T.T.T.T.T.T.T.T.T.T.T.T.T.T.T.T.T.T.T.T.T.T.T.T.",
"T.T.T.T.T.T.T.T.T.T.T.T.T.T.T.T.T.T.T.T.T.T.T.T.T.T.T.T.T.T.T.T.T.T.T.T.T.T.T.T.T.T.T.T.T.T.T.T.T.T.T.T.T.T.T.T.T.T.T.T.T.T.T.T.",
"T.T.T.T.T.T.T.T.T.T.T.T.T.T.T.T.T.T.T.T.T.T.T.T.T.T.T.T.T.T.T.T.T.T.T.T.T.T.T.T.T.T.T.T.T.T.T.T.T.T.T.T.T.T.T.T.T.T.T.T.T.T.T.T.",
"T.T.T.T.T.T.T.T.T.T.T.T.T.T.T.T.T.T.T.T.T.T.T.T.T.T.T.T.T.T.T.T.T.T.T.T.T.T.T.T.T.T.T.T.T.T.T.T.T.T.T.T.T.T.T.T.T.T.T.T.T.T.T.T."
};
