/* XPM */
static char *_9bc901158e148afdd090dee47b9a490jJEWf8m3zuF8spzw[] = {
/* columns rows colors chars-per-pixel */
"77 64 176 2 ",
"   c None",
".  c #020202",
"X  c #0A0202",
"o  c #060608",
"O  c #070909",
"+  c #0B0B0B",
"@  c #150002",
"#  c #110907",
"$  c #1B0706",
"%  c #0F1112",
"&  c #131414",
"*  c #181211",
"=  c #181817",
"-  c #141718",
";  c #16191A",
":  c #1A1B1B",
">  c #210708",
",  c #240A0A",
"<  c #2E0C07",
"1  c #390106",
"2  c #3D0F07",
"3  c #3B0C0A",
"4  c #330706",
"5  c #39110A",
"6  c #211D1D",
"7  c #2D1C1D",
"8  c #2B1113",
"9  c #361610",
"0  c #361916",
"q  c #20201F",
"w  c #1C1F20",
"e  c #1E2223",
"r  c #222425",
"t  c #2F2021",
"y  c #282827",
"u  c #222729",
"i  c #252A2C",
"p  c #2B2C2C",
"a  c #322628",
"s  c #292F31",
"d  c #352F32",
"f  c #2D3234",
"g  c #2F3539",
"h  c #333334",
"j  c #3B3130",
"k  c #383836",
"l  c #323739",
"z  c #343A3D",
"x  c #3B3C3C",
"c  c #480207",
"v  c #460E06",
"b  c #470408",
"n  c #4F0208",
"m  c #460206",
"M  c #520309",
"N  c #5B0309",
"B  c #5B0307",
"V  c #4A1006",
"C  c #501106",
"Z  c #5C1306",
"A  c #65040A",
"S  c #76030A",
"D  c #6B1407",
"F  c #621206",
"G  c #701507",
"H  c #7B1808",
"J  c #680D12",
"K  c #402F2B",
"L  c #493B38",
"P  c #413D3E",
"I  c #6A2225",
"U  c #6D3034",
"Y  c #3B3F42",
"T  c #353D40",
"R  c #3C4143",
"E  c #3E474B",
"W  c #434343",
"Q  c #424648",
"!  c #444A4C",
"~  c #4B4C4C",
"^  c #4C474C",
"/  c #51514F",
"(  c #454D52",
")  c #4A4F51",
"_  c #475055",
"`  c #4D5153",
"'  c #4B555A",
"]  c #4E595D",
"[  c #535454",
"{  c #585150",
"}  c #565758",
"|  c #535A5C",
" . c #5B5B5B",
".. c #5A5A57",
"X. c #615A59",
"o. c #60605D",
"O. c #525D62",
"+. c #5B5F62",
"@. c #566166",
"#. c #5C6264",
"$. c #5A656A",
"%. c #5D696E",
"&. c #5E6A70",
"*. c #646464",
"=. c #62696C",
"-. c #6B6B6B",
";. c #7E696B",
":. c #73736F",
">. c #616D73",
",. c #6C6F70",
"<. c #657077",
"1. c #6D7375",
"2. c #66737A",
"3. c #6C777C",
"4. c #6B787F",
"5. c #737373",
"6. c #76797A",
"7. c #7B7B7C",
"8. c #767978",
"9. c #88060D",
"0. c #92040C",
"q. c #9C050D",
"w. c #811808",
"e. c #8C0710",
"r. c #910710",
"t. c #9F1A11",
"y. c #A5050E",
"u. c #A8050E",
"i. c #A61B12",
"p. c #C20A14",
"a. c #CA0A15",
"s. c #D50A16",
"d. c #E00B17",
"f. c #DC1F21",
"g. c #EB2025",
"h. c #6E7C83",
"j. c #717F86",
"k. c #75848C",
"l. c #798286",
"z. c #7C8C94",
"x. c #848484",
"c. c #8A8B86",
"v. c #8D8D8D",
"b. c #8C8C8C",
"n. c #82939B",
"m. c #939493",
"M. c #99999A",
"N. c #9E9E9E",
"B. c #9B9B9B",
"V. c #959897",
"C. c #9FA09B",
"Z. c #A3A39E",
"A. c #9A9EA1",
"S. c #A7A7A7",
"D. c #A2A2A2",
"F. c #ABABAB",
"G. c #ABACA6",
"H. c #AFB0AB",
"J. c #B2B3AD",
"K. c #B1B1B1",
"L. c #B5B5B5",
"P. c #B4B4B5",
"I. c #B9BAB4",
"U. c #B7B9B9",
"Y. c #BABABA",
"T. c #BEBEBE",
"R. c #BCBDBC",
"E. c #C2C3BD",
"W. c #C0C0C0",
"Q. c #C3C3C3",
"!. c #C1C1C1",
"~. c gray79",
"^. c gray80",
"/. c #D2D2D2",
"(. c #DFDFDC",
"). c gray88",
/* pixels */
"                                                                                                                                                          ",
"                                                                                                                                                          ",
"                                                                                                                                                          ",
"                                                                                                                                                          ",
"                                                                                                                                                          ",
"                                                                                                                                                          ",
"                                                                                                                                                          ",
"                                                                                                                                                          ",
"                                                                                                                                                          ",
"                                                                                                                                                          ",
"                                                                                                                                                          ",
"                                                              &                                                                                           ",
"                                                              =.                                                                                          ",
"                                                              =.          O                                                                               ",
"                                                        .     #.[         )                                                                               ",
"                                                  Y     - o   @.D.        3.                                                                              ",
"                                                  Y *.  : k + +.m.: & . ) m.+   :                                                                         ",
"                                                  R 1.h % + & O.8.p h ^ P y O = :                                                                         ",
"                                                - p ] N.: p W Q k h  .B.B.M.-.*.O + 3.                                                                    ",
"                                            . p + e - : u h ~ h B.7.5 C > : p # j 8.:                                                                     ",
"                                      u x w h S.P.e i - W [ h T.0 D & p = #.r v.= # c.= = O.                                                              ",
"                                      o f r p ~ Q.P e h ~ p E.5 G r x ~ i ] v.w -.Y O ,.: =                                                               ",
"                                  } k f W ~ E ~ T.K.i [ [ P.L H % ~ -. .T %.r s V.z +.d x & ; F.                                                          ",
"                                  e s : k } *. .Y.Q.h [ y Q.V v u -.~ ` Y O.B.y T.e *.; [ ..u %                                                           ",
"                                  ; i ! 8.^ -.[ F.W.r } x P.F * e =.E l i k.E.*.Q.*.z l 7.-.% f + W                                                       ",
"                              - r u i h p ,.5.5.N.W.=  .h Y.Z % e r % f k.L.Y.p [ ~.N.& 5.*.y i f =                                                       ",
"                              O u w R h *.5.7.5.S.W.:  .W Q.2 = ; f $.7.K.Q.~.u M.~.Q.K.W  .l O e u O                                                     ",
"                            ! $.w u ,.r -.5.8.,.U.W.y  .*.8.7.X : ] v.v.F.T.~././.^.U.T.: 8.} & : O.z.i                                                   ",
"                            z.%.%.w i f *.,.5.*.W.W.k  .^  .S.^ : p v.x.V Z 2 j 9 Z 0 c.d ^ 5.p &.&.k.                                                    ",
"                              $.>.&.O.u ^ *.*.W W.T.[ *.-.5.*.~ i u -.Z.N.2 i.g.f.C Y. .e r :.W 2._                                                       ",
"                            . 0.0 k.&.&.&.Q } 7.W.M. .*.-.5.7.x.k : ' l.F.R.{ i.v Y.E.P 5.5.,.^ 3 B - o                                                   ",
"                          . . y.y.0.t j.&.&.3.U.W.k ..^  .*.7.x.b.c.p _ 1.F.Y.v  .W.k x.x.,.[ W y.A N.o.                                                  ",
"                          3.. S u.u.u.u.N d &.2.>.% m.o.-.1. .*.x.v.m.B.p =.F.m.K.W b.5.*.5.-.b.M -.T.^                         %                         ",
"                          h.%.d 1 N 9.u.u.u.0.0.% i f *.*.[ ^ 7.x.,.v.m.M.-.q r q b.*.8.W W ,.+ v.W.5.d h                   + } (.x                       ",
"                        . : O.A.T.M.j 1 N y.q.X i s e ~ *.o.f 7.j.8.x.v.v.m.v.v.v.b.,.7.[ ) ^ 7.Q.[ h ; Y.-             # V.E.E.E.-.y                     ",
"                        ( e e ; Q F.W.T.} b 0.O i i f W *. .^ -.-.P 7.x.-.-.8.,.*.x.x ,.[ -.~ T.h f = D.F.u :         . E.E.I./ : : / 1 s /               ",
"                        h.' % w r h p N.Q.x.n @ i i s s  .*.-.-.5.s 5.x.^  .6.5. .7.i } ,.-.W p p & P.F./ / 6.          E.~ : = # e =.I , .               ",
"                        r %.&.%.[ : : u v.W., @ i e w i l #.*.-.*.{ -.7.W 5.-.8.P -.[ -.*.k R l w D.V.*.N.}             = = + e Q 7.*./ .                 ",
"                      Y ; - w ' V.T.T.z ; Y.W @ i i i i i u  .*.-.-.,.,.[ Y i z -.,.-./  .( w w i T.*.*.Q W .           . e R 7.-.+ = p p                 ",
"                      W e - - : u P K.Q.W @.s @ , z i i s s e f l ) ! T E 6 < z T } *.! $ >.& z W.[ *.*.+.X..       . + B o.*.% % : k : o.                ",
"                        w - [ ] i } +.V.T.U.M.M.4 F & l s s s s u p Y 6 D D Z w.: r r o f @.&.' : [ } ~ b.5.      : ! -.b X & : : : q q p j               ",
"                        h.; ; w i l *.-.^ ~ ^ T.& r y y r : : - = & & & + Y.D.*.p y p ; R ; - w u r l m.W O . ; ( 7.5.& . . * r : y 6 = 6 o.              ",
"                        . n.&.g : u [ *.*.~ *.Y.% ,.; ; h d ; ; & m.= ; h.U u.;.% ;  .& - & & w ( &.e z [ -.g 8.5.-         + : : q : : W 8.x             ",
"                        . l e 2.2.&.&.Y.E.E.R.d w & + O + % & - - & - = ' ^ 9.D.+ + r q h.2.2.k.$.; - +.-.-.k =     . = r ~ k : : = c.H.Z.E.(.            ",
"                          _ z ! ..h r r s p & s s s s s s s s [ ` ) h F.S.' &.[ F.Q ../ . % w O g T & [ = e .       = q 6 : : : q c.E.E.E.E.x.k           ",
"                          i ! z -.#.-.-.-.-.o 3.$._ T u e w e p W W K.T.7 m n t W.7.W ,.. . w z z ` z z } -..     . 6 : : : : ..H.E.:.E.W .               ",
"                            . ; l l *.-.[ *.. % g ' @.&.&.&.&.&.<.W.W.8 e.d.d.r.7 R.S.7.O @ z ) -.-.-.-.*.+       & p : : j M.E.R.E./ .                   ",
"                                  o Q -.o .     O s ] E ; y y y + . 1 N u.d.d.d.A y x   O 6 y -.-.-.*.;         . -.C.G.I.E.E.E.E.~                       ",
"                                    . .         e s Q 7.5.: - - .   . , M a.p.J h p o     o .  .~ +             = E.E.E.Y.E.E.Z.&                         ",
"                                                i f z Q v.m.x [     . f g T ,.v.W h .                           W E.J...= % .                             ",
"                                                i } l z p - p O     .  .u z : & r p                             o.q                                       ",
"                                                : z f % i Y x y       s s e : x x h .                           .                                         ",
"                                                        . .                                                                                               ",
"                                                                                                                                                          ",
"                                                                                                                                                          ",
"                                                                                                                                                          ",
"                                                                                                                                                          ",
"                                                                                                                                                          ",
"                                                                                                                                                          ",
"                                                                                                                                                          ",
"                                                                                                                                                          ",
"                                                                                                                                                          ",
"                                                                                                                                                          ",
"                                                                                                                                                          "
};
