/* XPM */
static char *b30119dad00542d8bc351fcad267f89eJnPy6aE6nU3RIH7X[] = {
/* columns rows colors chars-per-pixel */
"64 64 252 2 ",
"   c None",
".  c #281506",
"X  c #3A1904",
"o  c #371C12",
"O  c #200D01",
"+  c #3A2306",
"@  c #362718",
"#  c #37290A",
"$  c #2E1C15",
"%  c #421B06",
"&  c #472705",
"*  c #542B03",
"=  c #5C2D02",
"-  c #572909",
";  c #4C3707",
":  c #5C3403",
">  c #5C330A",
",  c #583706",
"<  c #442D19",
"1  c #4A3212",
"2  c #5A3614",
"3  c #622D06",
"4  c #623305",
"5  c #653A03",
"6  c #63330A",
"7  c #673A07",
"8  c #633614",
"9  c #653A19",
"0  c #723D0B",
"q  c #50392A",
"w  c #613C31",
"e  c #5A4208",
"r  c #594618",
"t  c #4E411A",
"y  c #6B4202",
"u  c #674609",
"i  c #754B09",
"p  c #6B5309",
"a  c #79540B",
"s  c #674517",
"d  c #764A16",
"f  c #6B531A",
"g  c #7A5717",
"h  c #7A630E",
"j  c #55442C",
"k  c #784A25",
"l  c #775628",
"z  c #6F502D",
"x  c #7C642D",
"c  c #7D7064",
"v  c #695B50",
"b  c #85581A",
"n  c #83540B",
"m  c #8A6917",
"M  c #916E12",
"N  c #A4781A",
"B  c #885C23",
"V  c #8A692A",
"C  c #956926",
"Z  c #9A7427",
"A  c #986C34",
"S  c #977936",
"D  c #886F39",
"F  c #A77C28",
"G  c #A67B36",
"H  c #997849",
"J  c #916F44",
"K  c #A27A47",
"L  c #988018",
"P  c #B89A1B",
"I  c #AF8C17",
"U  c #BCA11C",
"Y  c #9E8339",
"T  c #98842C",
"R  c #A8852B",
"E  c #BD9A2D",
"W  c #B89629",
"Q  c #A88937",
"!  c #B28936",
"~  c #AA9637",
"^  c #BA9534",
"/  c #BD9B32",
"(  c #BB953B",
")  c #B69938",
"_  c #AD8D2C",
"`  c #BCA726",
"'  c #BAA236",
"]  c #BEB534",
"[  c #C49C15",
"{  c #C59D1C",
"}  c #CA9D1C",
"|  c #C79B16",
" . c #C79A10",
".. c #C6A20C",
"X. c #C5A21C",
"o. c #CBA21C",
"O. c #C6A516",
"+. c #D6A61C",
"@. c #C69D23",
"#. c #CA9D23",
"$. c #C39C2C",
"%. c #C59928",
"&. c #D19D28",
"*. c #C49B34",
"=. c #C49B3A",
"-. c #C79B36",
";. c #C08E37",
":. c #CCA223",
">. c #CCA32C",
",. c #C7A428",
"<. c #D6A928",
"1. c #C5A335",
"2. c #CCA233",
"3. c #CBA43B",
"4. c #C7A938",
"5. c #D6A936",
"6. c #D8B536",
"7. c #CDB730",
"8. c #E8BA2C",
"9. c #E9BC36",
"0. c #F5BE37",
"q. c #EAB032",
"w. c #D8C63A",
"e. c #E8C42B",
"r. c #F2C12A",
"t. c #EAC439",
"y. c #F3C439",
"u. c #95834A",
"i. c #9C8E58",
"p. c #A68746",
"a. c #AC9648",
"s. c #BA9946",
"d. c #B59755",
"f. c #AB8E50",
"g. c #B8A74B",
"h. c #B9AB51",
"j. c #B39C6B",
"k. c #B7A576",
"l. c #C79D48",
"z. c #C29D54",
"x. c #CCA344",
"c. c #C8A948",
"v. c #D3A647",
"b. c #CBB945",
"n. c #D7B948",
"m. c #C7A856",
"M. c #C9B75A",
"N. c #D7B958",
"B. c #D5AD53",
"V. c #EBBE47",
"C. c #E7BA59",
"Z. c #ECB449",
"A. c #CBB667",
"S. c #D8BB65",
"D. c #CCB873",
"F. c #D0AB63",
"G. c #EDBD65",
"H. c #D9C948",
"J. c #D9C758",
"K. c #D3D253",
"L. c #E9C548",
"P. c #EAD648",
"I. c #F3D94B",
"U. c #E4CB56",
"Y. c #EBCB55",
"T. c #E5CB5B",
"R. c #ECCC5C",
"E. c #E8C559",
"W. c #F1CD5C",
"Q. c #F3CA58",
"!. c #ECD25D",
"~. c #E7D557",
"^. c #F1D35D",
"/. c #F7D55B",
"(. c #F4C646",
"). c #F6E359",
"_. c #FCF55C",
"`. c #EFE253",
"'. c #D8C765",
"]. c #DAC478",
"[. c #DAD173",
"{. c #E3CC62",
"}. c #EECE61",
"|. c #E9C867",
" X c #F1CB66",
".X c #EED363",
"XX c #EDD36C",
"oX c #EBD769",
"OX c #F2D364",
"+X c #F4D966",
"@X c #F3D46B",
"#X c #F5DB6B",
"$X c #F9DE6D",
"%X c #FADB66",
"&X c #E6CB77",
"*X c #E9D676",
"=X c #F5DC74",
"-X c #FADD71",
";X c #F6D878",
":X c #F7CE72",
">X c #E9E369",
",X c #F5E26C",
"<X c #F9E26E",
"1X c #F9E565",
"2X c #FCF563",
"3X c #F9F668",
"4X c #F5E374",
"5X c #FAE474",
"6X c #FAEA74",
"7X c #F5E47B",
"8X c #FAE67B",
"9X c #F6EA7C",
"0X c #FAEA7D",
"qX c #F4EB75",
"wX c #FCF678",
"eX c #EEEC7D",
"rX c #BAAFAA",
"tX c #C4AC80",
"yX c #D8C98A",
"uX c #E8D787",
"iX c #F2D788",
"pX c #E6D996",
"aX c #ECCE8A",
"sX c #EDE488",
"dX c #F5E583",
"fX c #FAE780",
"gX c #F6EB84",
"hX c #FAEC84",
"jX c #F5EC8B",
"kX c #FAED8A",
"lX c #F8E389",
"zX c #FAF185",
"xX c #F5F18C",
"cX c #FBF28B",
"vX c #F7F384",
"bX c #EDE596",
"nX c #F4EC92",
"mX c #FAEC92",
"MX c #F6E798",
"NX c #FBF293",
"BX c #FBF29C",
"VX c #F6F595",
"CX c #ECF187",
"ZX c #E8D9AB",
"AX c #F8EBA6",
"SX c #FBF7A6",
"DX c #FAF8B6",
"FX c #EAE7AE",
"GX c #FCFBC7",
"HX c #F9F6D8",
"JX c #F8EDC1",
"KX c #FBF9EB",
/* pixels */
"                                                      q # x Y Q Q G x & #                                                       ",
"                                              + s.^ E W W W b.U.J.n.' W ' ` ^ s.1                                               ",
"                                        . ( E W N.U.XX.XOX}.^.!..XR.U.R.@X|.{.hX) W ^ 2                                         ",
"                                    D W ^ *.+XW.OXOX#Xd 7 |.N.7X7 .X) , R.P.Y. X.XJ.gX_ *.p.                                    ",
"                                r ^ ^ E.+X+XOX' MXv.XXyX= R.n.S 5 Y.].uXc.Q.a.> R.E.Q.Y.*Xg.E Q                                 ",
"                            j R ) c.$XOX+X( @Xd., ( W.Y.Y.OX}./.W.{.U.V.Y.{.m 4 R./ p.Z E.T.uX) 1..                             ",
"                          z F Z @X^.-X*X].> ^.^.XXOXOXOX^..X^.}.}.}.}.}.R.T.~.R. X) [.n E.%.v.*XNX*.m.                          ",
"                        S G '.@Xg.[.g $X|.-X+X@X@XOXOXOXOX^.^.}.OXOX.XR.}..XR.}.|.Q.:X!.n.CX,  X#XdXQ 1.                        ",
"                      V C 5X$X=XB.> a +X+X#X+X@XOXOXOX.X^.OX@X^.OX}.OXR.}.}.OXR.}.R.R.}.Q.! m }.E 4.gXuX2.@                     ",
"                    m b ,X'., n #X%X$X+X+X#X+X+X#XOXOX+X^.^.|.7 Y.^.OX}.}.OX}.}.W.}.Y.K.X U.Y.Y.DX* #X7XSX:.<                   ",
"                  B g 5X-X` 7 a =X$X#X#X#X#X#X#X@X+X+XOX+XOX[.N iXOXOX}.W.}.}..X}.}.OX2X[ e {.|.R = =X#XfXSX-.@                 ",
"                l g 1X^ B.<X%X+X#X-X#X#X#X#X+X#X@X+X+X+XOX@X& ZX8 ^.OXOXOX}.}.}.^.R.2X} X.P o E.Y.T.Y.S a zXSXo.                ",
"              z d 5X0XyX= <X$X$X#X=X$X$X+X+X#X#X+X#X+XOXOXk.GX* F *X}..X}..XOX}.W.6.AX:.o.cXM.Q.Y.R.L.yX9 *XkXpX3.              ",
"            1 k =X5X,XR |.$X$X$X,X#X$X,X#X#X#X#X#X+X+X@X@XmX,X<.Z K @XOX^..XP @.m.) { @.b.X R.R.R.E.E.|.T.^.n.gXm.x.            ",
"          c k ].] C 5X<X5X$X<X<X$X$X$X$X$X+X#X+X$X+X$X+X+XVX6.Q & V OX.X}..Xw.8.@.%.f ` + R.R.R.R.R.E.E.G.JX> '.VX3.#           ",
"          s e #XSX5 * $X<X5X$X$X$X$X$X#X$X-X+XXX+X+X#X@X>XkX2XR 4 = OX!.!.^.wX+.y...P @ |.R.}.R.R.R.E.R.|.R > -XgXDX2.          ",
"        o s 4X5X<XQ =X5X,X5X<X<X<X$X$X#X-X$X.X: @X#X%X-X].nXN.yX( X iXOX.X XSXt.=.#.g.:X!.}.R.R.R.R.R.R.R.E.}.!.4.hXh.g.        ",
"        8 D P.i 5X5X<X5X5X<X$X$X$X-X<X$X$X=X, & XX%X#XJ.u bX6.DX$.- pX&X.XXX].` n f.aX}.}.OX}.}.R.R.R.R.E.E.Y.SX9 S.ZX<.        ",
"      + s 0XDX, a 5X<X<X5X4X<X5X5X$X<X$X#XAX7.+ 4X+Xn.7.x.u XX{ - xXrX> XX@X<.wX&.Q / }.}.}.OXR.R.R.R.R.}.E.Y.~ 2 iX;XD.B.      ",
"      8 l 6X!.) 5X<X6X5X,X5X,X<X,X<X$X<X,XAXu #X$X%Xy N c.a.P B : N %.5 aXl.O.: oXX.$.}.}.}.R.}.R.}.R.R.R.R.Q.U.R.E.+XsX<.      ",
"    < 2 dX=.=X5X8X5X5X5X5X5X5X<X-X<X$X<X5XbX+ =X<X,X).} @.r O.n z.m ,.= F U I.e [.6.*XOXOX XR.}.}.}.R.R.R.R.E.Q..XAX7 =Xh.H     ",
"    s & oXGX= fX5X0X5X8X5X5X5X5X5X5X<X<X$XeXa ,X=XP (.} O.:.I ^ M :.#.=.:.{ + 3XK.b :XOXW.OXOXOX}.}.R.OXR.R.R.W.R.* 3 .XDX2.    ",
"    > bX;XZ u 4X8X5X9X5X5X5X5X5X5X5X5X<X,XKX1.+ 6.).2.F.2X .X., 3X2.G %.[ * f ..A F.XX}.OX}.OX}.R.}.W.R.R.R.R.R.R.L.E.Y.*X<.    ",
"  @ 9 9X0X4X7X8X5X0X5X5X5X5X<X5X5X<X<X<X,X*XwXy zXr.X FXFX9.,.).6XZ.o.%.- -.@.2 @X.XOX!.OX^.}.R.R.}.}.}.}.R.R.R.R.R.J.7 W.c.V   ",
"  2 < 1Xu : fX9X9X5X6X8X5X5X5X5X5X5X-X,X$X$X6X7 W.C A.m.cXE.x.m 7.8.:.8 a ] D.:X~.iXQ.C m OX.XOXOXOX.XW.R.}.R.R.R.{.pX: Y.DXq.  ",
"  8 x qXu.6 9X8X8X8X5X5X0X5X5X5X5X5X5X5X5X4X4X-X(.H oX.X|.pXC.g q.5.2 z.} s N.<.'.d . *.%.c.R.OXW.}.}.}..XR.}.}.R.R.OXXXT.'.5.  ",
"  8 AXzX0X8X7X8X8X8X8X6X8X5X5X5X5X<X5X5X5X<X4XHXp.- < 1 & % - A t.-.rXa.&.MXV ! c.p o.#.bX. .X.XOX}.}.}.R.OX}.R.R.R.T.5.5.G.6.  ",
"  2 gX{.x 9XfXfXfX8X8X8X6X5X8X8X5X<X5X5X-X<X,X4.L.t.S.(.L.9.2.' l.: 5 u 2 8 <X^.+X+X^.XX:X!.+XOXOXOXOXOXR.W.R.OXR.R.(.DX8 E.v.. ",
"< 2 vXDX* 7XhX0XfX0X8X8X8X8X5X6X5X5X5X5X,X5X5X~.I.V.`.+.O.$.n.1.g Z b V ! d = J.+X+XOX@X.XOXOXOX.X}.OX}.}.}.}.W.}.R.R.& 6 Y.N.f ",
". w gXP / 9XfXfXfX0X8X8X7X6X0X5X5X5X6X4X5X5X<X<XNX>Xt.O.o.*.*./ u B.4.V.4./ Z > XX+X+XOX+XOXOX}.OX^..XOXOX}.}.}.W.R.R.R.R.|.uXz.",
"X q cXnXhXhXhXfXgX0X8X9X8X9X5X6X0X5X8X,XkXl &XDX; >Xe.V.:.$.W b.s N.HXf 3.3.| 4 .X+X+XOXOX+XOXOXR.OXOX}.OX}.}..X.XR.!.c.0 R.FX X",
"& w fXQ 5 hXhXhXfXhXfXfXdXu.uX0X5X6X5X+X! -.#.GXA.[.L.e.a %.W b.* '.g m y ! :.#.g @X+X+XOXOX+XOX+XOXOXOXOXOX}.W.}.}.OXSX: 2.DXC.",
"% w zXDX4 0XhXhXhXfXfXfX9X3X+ o &X8X7XsXT.= 2.SX1 K.e.} - :.:.h.iX~ Y Y.- eXn t.6 ;X#X+XOX+XOXOXOXOX}.OXR.OXOX}.}.}.^.Q.2.Y.DXC.",
"o z kXT.;XgXhXhXhXhX0XhX0XGXs ; 7X5X7X;XwX).> | vXf.3X0.W _ ; 1 {.g.' - U.L.y.Q.= 6 +X+X+X@XOXOX+XOXOXOX.XOX}.OXOX}.Y.^.Q.!.AX|.",
". k cXcXxXhXhXkXhXhXhX0X8XGX& 8X9X8X8XlX_.<XC.> 4.o.Y 4.1.Y < M.Q ' d '.C 8 Q | x.B ;XOX@X+X+XOXOXOXOXOX.XOXOXOX}.}.^.H 3 W.pXm.",
"@ k zX~ : NXhXhXhXgXfX0XhXDX4 9X8X8X8XMX*XZ 0.9.d 2.:.%.F., m `.y 2 T 5 H.{ a 6 :.o.6 %X#X+X@X+X+X+XOXOX.XOX}.}.OX}.W.MX- R.S.l ",
"  g jXdX= cXkXhXhXhXgXjX,XwX; 0X8XfXfXJ zXn V.r.` F y ! + s GXQ e S / K 1.#.@.| #.} N iX#X+X@X+X+XOX+XOXOX}.OXOX.XOXR.^.}.W.x.. ",
"  g AXgXcXgXcXhXhXzXhXfXd %.jX0XfX7X6XyXV.).X 9.t.3.) u 1.'.6.d.g.< ).4.N g M M - g Z 9 @X@X+X+X@X+XOXOXOXOXOXOX.X!.R.y OX@X6.  ",
"  l u.xX=.a zXkXkXhXhXb.y.:.X DX9X9XdX.X(.9.- r.& 2.& I m H.I {.W GXn.7 P.x.a e D.O SX* +X@X#X+X+X+XOXOXOXOXOX@XW.}.DX& s.|.6.  ",
"  l 1 kXDX3 jXcXhXhXvX3X0.b X ( >.+ iX3XI.A.t.9.= { M p.3Xy.U _.O.N.i.N.y.= 2.A.8X=X2X0., #X#X+X+X@XOX+X+XOXOXOXOX}.5.-.OXDXZ.  ",
"  . V nX' '.vXjXcXkXhX_.t.e.F %.,.X 4.sX3XS.e.2X....C {.w.x.~ 9.l.pXg., P %.&.5 ~ -X7.f 9X<X$X+X#X+X+XOXOX+XOXOXOX#X X.X}.S.K   ",
"    C AXxX=Xc.kXkXkXkX6XF ).P [ >._ x.h.>Xt.r.V.! :.% 3Xt.=.wXr.* ~.BX1X8.[ = v.b #X5X&X;X#X%X#X+X@X#X+X+X X+X.XOXQ 6 @X.X6.q   ",
"    A & xXDX4 nXkXvXkXkXC (.| *./ *X, f l [ _.Y._.E sXt.9.( I.<.z 9.,.j.BXq.| 9 * -X$X#X#X#X#X+X#X#X+X+X@XOXOX@X+XAX6 +XAX<.    ",
"    O F xX_ 5 hXjXkXkXhXhXZXAXBXf.a.U m.i = p 7 6.r P.0.:.0Xy.o.HXL.3.>XL.|.6.<.> 1X%X#X#X#X#X#X#X+X#X@X+X+X^..X/.#X|.@XM.j.    ",
"      F u.xXxXoXcXxXkXjXdXDXDXjX9X0X~.M G B B 2XoX_.t.y.F 2X0.o.KXt.b w.j.(.} : i 8X=X$X$X#X#X#X%X@X#X#X+X@X+XW.> B !.*Xq.      ",
"      l p.vXoXFX6 vXNX0XjX- D.j BXgXvX7.kXf.b 3.wX3XH.3.1.e.0.,.KXe.O.1Xd.5.I > u #X$X$X#X$X4X#X@X$X#X+X#X+X+Xb.DX4  XpXB.      ",
"        ! i.kX; y jXgXW D p a.F.a.& zX6X2.=.c.z.-.u U l.1.I.q.5 VX`.U _.,.l :.% 7X-X4X<X,X=X#X#X@X#X#X#X%X#X@X+X$.%X*X<.        ",
"        r s.BXNXxX5XzX7X) Q & P F i jX0X8X-.b - u C u qXw.5.Z -.K.6.O._.{ >.& c.$X$X$X$X$X$X$X$X$X%X#X#X+X+X4 C +X@XS.S.        ",
"          Q ; NXK.k.> CXNXhXcXkXhXkXfXhX9X9XV G '.K m 3 ` @.7 ^ O.,.3.R % ! ^ , <X<X$X-X#X5X$X$X#X#X#X#X#Xg.AX= .XMX5.          ",
"          q W mXkXQ , xXkXvXvXkXkXhXhXhXhXhXqXW F @.m d 4 ` ~.*Xl * a.2.-.: * oX5X<X<X<X<X$X<X$X$X$X#X#X1XOX:.).4X5.j           ",
"            H ) BXNXBX|.! jXmXkXkXhXhXzXhXhXgX0X!  .C G s.x.m.=.iX0X=X8X8X~ o.: -X<X-X<X$X$X-X$X#X#X#X) , &X$XP.A.B.            ",
"              ( S xXjXGX6 D.kXcXcXkXkXhXgXhXfX0X5X-.G b d C yXo.x.J.0X<X%XD.6.f.P n.<X<X$X5X$X$X-X$X$XBX* N.$XAXq.              ",
"                W a nX' g NXcXgXcXkXkXkXkXhXhXkXfXhX=X2.7.R T.a m 4X6X5.@.k.o ^.U | | <X$X<X-X5X%Xd ;X4X+X5XBX<.v               ",
"                  =.h nXjXgXM.: kXhXjXhXhXhXhXzXfXhX9X0Xo.l.s N =X7Xo.:.n | 6X3.P E.:.$X$X<X,X-X'.].4 #X-XkX<.O                 ",
"                  v *.h xXkX[.6 NXkXvXMXjXhXhXhXhXfXhXfXfXgXkX8X8XgX- S MXf x ].S.;X6.6X$X>XG #X1Xx.R.@XxX:.&                   ",
"                      =.T xXmXkXjX' 4 gXhXkXhXkXzXhXhXhX0X0X8XfXfX9X4X4X5X<X8X<X7X<X5X5X=X'.bX5 %X1X$XkX<.O                     ",
"                        ( ( BXxXsXBXs ].hX' fXhXhXgXhXfXhXhX0XfX8X7XfX8X5X5X5XfX8X5Xb.3 ;X%XR .X$XdXN.6.J                       ",
"                          a.=.T BXcXmXcXM.j.: vXzXhXhXgX0X0XfX0X8X0X6X7X5X9X5X*.E.5XGX1 C 5X$X#XjX3.3.                          ",
"                            . W ) jXcXxX4X* h.kXBX9 dXkX^ J.hX6XXXfX7X( a <X~.SX- 5X<Xb.1X<X7X'.+.r                             ",
"                                D *.! lXjXzXzXfXZ 4 sXb.SX6 zXgX, p 9XGX> 0X6Xm _ <X5X6XdX{.>.m.                                ",
"                                    z.$.^ M.mXcXCXqXgXbXF M.fX1.6 uXCX5.( 8X7X6X8X0X8X' 5.x.                                    ",
"                                        f =./ ) N.gXvX0XjXhXgXgXhX9X6X7X0X0X8XmXb.%.:.d.                                        ",
"                                              l s.W $.E 2.N.|.;X;X@X{.c./ 2.$.1.H j                                             ",
"                                                      . r f.m.c.c.B.d.f .                                                       "
};
