/* XPM */
static char *_0bb0580c7cc48e6f20df13098f0f341FmdyEe8wnvRJwyut[] = {
/* columns rows colors chars-per-pixel */
"64 64 188 2 ",
"   c #14100F",
".  c #1A1719",
"X  c #2D2C2C",
"o  c #362F2B",
"O  c #322D30",
"+  c #2F3233",
"@  c #343231",
"#  c #373A35",
"$  c #3B3937",
"%  c #3B3D3C",
"&  c #433D38",
"*  c #43423C",
"=  c #3D3E40",
"-  c #3F4242",
";  c #444646",
":  c #4C4B45",
">  c #464748",
",  c #474A4C",
"<  c #4B4B4C",
"1  c #574D46",
"2  c #524E4A",
"3  c #4C514F",
"4  c #54534E",
"5  c #5A534C",
"6  c #4F4F51",
"7  c #4F5351",
"8  c #525555",
"9  c #5B5654",
"0  c #575A57",
"q  c #5A5B56",
"w  c #575758",
"e  c #565A59",
"r  c #5B5D5C",
"t  c #67574D",
"y  c #665851",
"u  c #615C55",
"i  c #625E5C",
"p  c #695E5B",
"a  c #745D53",
"s  c #5C605D",
"d  c #7B654E",
"f  c #62625E",
"g  c #6B655F",
"h  c #7B6B5B",
"j  c #5D5E61",
"k  c #605D61",
"l  c #5E6161",
"z  c #636564",
"x  c #6B6763",
"c  c #666867",
"v  c #6B6A65",
"b  c #66666A",
"n  c #696768",
"m  c #666A6B",
"M  c #6B6C6C",
"N  c #746C66",
"B  c #7A6B62",
"V  c #726E6C",
"C  c #786E68",
"Z  c #6D706E",
"A  c #72716E",
"S  c #7B746E",
"D  c #7D796B",
"F  c #6C6E71",
"G  c #706F71",
"H  c #6E7273",
"J  c #6E7379",
"K  c #737574",
"L  c #7A7574",
"P  c #767876",
"I  c #7A7A75",
"U  c #737679",
"Y  c #7B7778",
"T  c #767979",
"R  c #7B7C7B",
"E  c #806551",
"W  c #856C5D",
"Q  c #90725A",
"!  c #847766",
"~  c #8B7666",
"^  c #81746D",
"/  c #8A7A6E",
"(  c #837674",
")  c #827B74",
"_  c #8B7C71",
"`  c #817E7B",
"'  c #7E8076",
"]  c #7E807E",
"[  c #878377",
"{  c #888073",
"}  c #82817D",
"|  c #8A847C",
" . c #9C8471",
".. c #958877",
"X. c #94877C",
"o. c #98847B",
"O. c #9B8B7B",
"+. c #A28164",
"@. c #A78D7C",
"#. c #AE927A",
"$. c #B8997A",
"%. c #777B81",
"&. c #7C7E80",
"*. c #817E81",
"=. c #7E8181",
"-. c #828382",
";. c #8B8683",
":. c #868886",
">. c #8B8985",
",. c #838788",
"<. c #8A878A",
"1. c #868989",
"2. c #8B8C8A",
"3. c #918782",
"4. c #9D8782",
"5. c #938B85",
"6. c #9A8C83",
"7. c #938D89",
"8. c #9C8D89",
"9. c #8E908C",
"0. c #9C9186",
"q. c #94928D",
"w. c #9B948C",
"e. c #9F988E",
"r. c #939391",
"t. c #9A9691",
"y. c #9C9994",
"u. c #9B9E9D",
"i. c #A58D81",
"p. c #A59383",
"a. c #AB9384",
"s. c #A3948A",
"d. c #AA958A",
"f. c #A6998B",
"g. c #B39488",
"h. c #B69888",
"j. c #B39B8C",
"k. c #A59692",
"l. c #A39B94",
"z. c #AB9B94",
"x. c #B89D91",
"c. c #B5A18B",
"v. c #BCA38B",
"b. c #AFA190",
"n. c #A5A19A",
"m. c #AAA39D",
"M. c #B4A394",
"N. c #BAA494",
"B. c #B4A49A",
"V. c #B9A89A",
"C. c #BBA99B",
"Z. c #ACA8A2",
"A. c #BCABA3",
"S. c #BBB1A9",
"D. c #C3A08B",
"F. c #C1A493",
"G. c #CBAB94",
"H. c #C4AD9D",
"J. c #D2AE97",
"K. c #D1AF98",
"L. c #CDB09A",
"P. c #D6B39C",
"I. c #CAAAA2",
"U. c #C3ACAA",
"Y. c #CCB3A5",
"T. c #C6B6A8",
"R. c #CAB7AD",
"E. c #D2B5A4",
"W. c #D5B7A6",
"Q. c #D6BAA5",
"!. c #DABBA3",
"~. c #DABEB1",
"^. c #EDC19D",
"/. c #EFCB9C",
"(. c #F4D19D",
"). c #DDC1AA",
"_. c #DAC1B4",
"`. c #DECBB9",
"'. c #EECBA0",
"]. c #E5C4AD",
"[. c #F4D3A7",
"{. c #E3C4B2",
"}. c #E7C9B5",
"|. c #E8CAB7",
" X c #F2D2BF",
".X c #F7DBB9",
"XX c #FBE0BD",
"oX c #E2D1C0",
/* pixels */
"-.-.T R T T R R R O.' R M K T R K r K R R -.P U K ;.M K K H J U R >.' K *.R &.T -.R -.M ;.R T A ] 1.R V.&.] T -.R U R R =.z &.R ",
"-.R -.R v R U R [ =.U T #.` M F -.R R -.K R T P j T ;.K G.R R H T R =.j.R *.T e.R w.R =.R p.R T ] M.v K -.R U -.=.] &.R -.R ,.:.",
"] R R R ` ;.Y M -.R m | R G.-.v R &.:.-.I.} ' } U T R = , F R T T T T T R &.T &.R p.R ] ] } K Z R R R T -.] z 0 -.K X c.x 5.T U ",
"P R T T U K :.R T R K T R =.R U -.T R K K K R T =.@.T K K T K %.J T M K W.] R R T ] P -.K R -.=.1.-.R R =.=.T R Z =.R -.H I R -.",
"R &.K K R R _.` G K R R V 3.&.R G R &.T K K R 1 T R R K H M D.U T T U T 2.R R ` P ;.R R &.=.T R R R &.R R T > T 1 ;.w.-.&.T R R ",
"V R } K &.R R.F Y R *.K T R R 8.v r R U T ! L R R K z T K F I.% P T P =.i T , b } z R R =.=.T K R I -.T &.8.=.4.K 8 1.R =.I ,.R ",
"R 7.1.=.-.R L K R L K &.] P.T K -.M I R T ( T H K H H &.T T T H d.M U U c T &.R =.R ] -.T =.R *.K R R x.&.] R R R K R T R R K R ",
"` R ` K K R K h <.R R G F =.P p K K R L 2 R K z F -.J K # H T U T ;.l w.T H M K I R R P :.V.] -..XK R R R -.R H R b F -.,.R &.R ",
"K } I &.] I K R U V.=.N u =.K K K F &.H K u K 0.M J K K H K K c z T m T R K R K K R &.K R &.R R ] -.K V.R &.-.T m L R R -.R R R ",
"K R R K R L ) R M T R o 3.R R ` 5.H K L K K m T K R K K 1.] v K R T U T > A v.F H A K R R T &.=.:.K K -.R R L R I R *.R T q.R } ",
"K T q K A.R I j.T K R P M H -.K K K K I K K z.O.T U R P z T -.=.U T T c R R K K U K M : A Z R | ;.K =.R R -.T v -.R -.R R R R R ",
"&.U Y >.I T A T K K M M | z K Z K v K K R M K m.H H K M R ..H J T A R H ` U H &.T K R ] P K ) R -.R =.V B.H T I M R R R -.L R T ",
"] K R R T K K K H H A F K K T F T K R Z H U Z H U ; -.P x T =.R R &.R U -.R z T R H R z K R K R -.D.[ -.R ` R } z M R R R R &.R ",
":.} i M K K Z o P T v I A A v H K 6.K K K F R =.% A > r T T ;.R ,.K H l 7 . *.H Z U T T K I ;.U R I.] I 2.S.I K K R R.R R Z.} m.",
"e.` T H ;.R . K K K 9 I R G.H P T T K H R R K v T w 5.( T K M P J M T M K K P R , M ` T R 2.K B.P ] ] |.-.R R H F R R R T t.q.k.",
"l.q.:.K K P ] M R T K K H I K Y T H T 8 T R T b K F F M B K ;.Y.f K b 7.v _ c b R U T 8 T K K | K I ' K -.I R K I ( R A.) I 1.[ ",
"y.1.9.y.H M 8 Z K } H A < A M R M H F R K R R H 9.T p.; I K T -.K %.V U m R R =.H r.~.T K T H R M.K K I I K K R R P R K K m.-.-.",
"-.` R >.T R M 0 K P w < t K 5.H K q './.R G.x.I H 0 z -.M * r R R R z ` f # m 4 d R J T H R K U M R R I K z K ] K &.I S K I P ` ",
"t.R q.=.K K H K K A A H H T =.} e z F L ;.P R Z +.T -.I R R K u.R R 8 ` U H R j 8.U T U J U K K I Z K P A I E.R I R R K I :.` 7.",
"| ] ` I R K m 0 V H H I P ` R P 9 p 7 # 1.R ; r } k.} l K R T -.) V ; h.K T Z =.O -.K m 8.F K V T p.f.K R K M T R | ` ].;.-.S R ",
"9.q.t.=.n.A K R R K Z -.} M } x -.P H m I K -.-.X R R K H K `.K v =.e L :.: e T F d r | F z.z d.P H K K K A P Z ] K } w.' K } } ",
";.n.2.>.7.P r I I H [ l K R A R -.T :.} -.T K F =.] X -.1.` K -.y f I h ] :.6.} R j R R T M K m z H J I d.R } Z A R R ` `.] :.q.",
"5.0.} K K v < K R I N.K P R R R } } K T  X=.;.] T R R R 6.L 1.R =.| =.I ] =.M R R Y.F H K r K K U H Z &.A K n.H m H A s.I R =.' ",
"t.} R A M K e v P } R } R M -.W.-.=.R R R ] }.R / z H R T R =.-.=.R }.&.H ] R M ( ~.K F T K J &.=.H T U l K H Z H M ] I -.>.Y.} ",
"q.;.' Z M K K G R ` K -.] =.S.-.R t.U T M K m R P R T T -.&.R @.R &._ K -.-.R R U F H H U R T U Z K P s.C T R R F K M A R } 0.I ",
"K K M Z I F K R R R R K =.-.| R =.R =.H R U T &.L.R ' T &.R T U &.7.K [ O.2.R R 7.T V H.T {.m J H P ] _ I K K M i.R Z A A I S K ",
"A A P Z K H K T 2.U >.R =.p.-.=.K } q I R 3.=.R !.R =.U T &.T R | a H R K ;.-.a.R K @ R T K R K P T =.] T A V H o.K K K A H I V ",
"A R K I K H R R Y I R I =.] =.=.=.8 &.R ` -.K ` R R } I V R R R R &.K R R 6.O.&.b T R R R U K T R  .R T H T T T H T T A Z D K I ",
"K ' T F K y.R ] R =.R =.=.;.=.:.R U o.m K R &.R :.R ` &.R -.C R R &.1.k.R R *.R :.R R K R ) T T H T T R K v K T R K H -.c m R Z ",
"K Z R R %.-.K P 8.T R R -.R =.=.-.R & T K T R J.9 R K =.oX:.-.=.:.R :.R z R R &.t.-.R K q R r l s ] U T K _.) R K K T U / M M M ",
"A A R m 9 R R ^.` =.-.-.R R R R =.K K R U R R R *.U &.K F &.-.&.: :.9 ~ :.&.>.) b P.T L S R -.a.K :.9 R q % m =.R R K ;.H Z Z v ",
"P P T R H P ] *.R &.R -.-.R T -.} K I R K R R A T &.&.-.T m r ,.d.R T =.=.-.} R T R -.K ).R T -.T ] =.=.} K Q.U K b U ` H R H A ",
"R j.T -.R R =.H -.T R ] >.R R s =.r.=.E.T R T -.R K } R ] R -.R ,.-.K K ] &.K R R F.| R K R &.K F M A R R -.K H &.R K K H K U T ",
"U R -._ R -.R w.] w.R ` R W.K T T V.z I T T T -.&.R R R -.=.-.&.&.K 7.=.I R T R s.R R K  .-.v j -.T &.T T R K K K H M Z P.T T U ",
"U T K T =.R R T P j.,.R R -.T R =.P ] M K =.6 & -.T u H.K 5.R R -.R R K R 7.-.K I R m >.-.$.I K R R R :.Q.| } } H I I j : U R &.",
"H T H K N.=.R R -.R K -.K R &.R -.R R -.-.=.&.&.F H R =.K P R -.U -.R T m T -.-.R R R R R R T K -.T R =.M H T K K a T K H U U &.",
"U =.U P q.R R R R 7.R R =.&.R =.] :.R R K R v T v -.5.*.:.R ] R H R U U R | |.} K K K U y ;.K T G V -.K T ` R : R R ] H H F D.J ",
"H T U ] f U b r -.} } U R R K T =.K R R R R =.O.K , ,.R R I =.} &.=.=.T R T 6.j R T ` R *.R R ( 4 i K F K x R K U U z T H H I.% ",
"g.b J R m T ] R ] R ] ] K R z *.R I T B R ,.&.T m K K R &.] M R &.d.-.=.&.T R Y R } R &.=.J.R L Y K R m I ` R H T V K &.T T T H ",
"K =.m n.R H Z I T T P R -.R.=.=.XX-.r P R R ` R R F R *.H =.R R K R R -.H =.U y T U U K K R K K T K R V i K M j F &.H U # H R T ",
"M P R =.R K K K P T K v I =.R I ] R v |.T T &.R m ^ R R K R =.R R =.I -.] K K R &.z.L A D U K -.K T ,.H H v T f.b J K K H K K m ",
"K R K R ; H E.M P H H P ] T R -.:.K K ` &.R ` >.R R -.P R ;.T | K R R >.P A I K M R T > z T w.R } H P R T K z T T =.U K 2.=.v H ",
"H U T K T T K A T K K 4 Z H I 6.R R -.` R -.U m R R :.T -.T R R K T v T z.R ' j.K R K -.K K R ] A A F v J H b.6.T T &.T f T -.-.",
"&.Z R T K R U R U K T R T K R R R R R K U.K R T F :.=.&.R K T R R T M >.P K K ] K A R M M.M T r K K K T } H T B.H F R M R ..K K ",
"R &.&.U *.R e R T H R c A R T I ' ).;.-.I } ] R i V R R R ] -.' -.K R R I K U -.T T M Z K H K H K K R K H U M K T > :.K v T =.T ",
"-.K H m :   2.H H T U H M I 6.I I Y.R P R R.I K T R s.R R r.[ m.:.:.> z U K K 2 T P K P K K M H M p.R K H m R -.$ K > j T T ;.&.",
"U m T U K K K R j Z w.T P ;.H w.` R R {.| I R s m R %.R R q.q.w.z.` R H ` } 9 U U A q R R / Z } T T P Z =.R U M R r 8.( T K V P ",
"5 H F ;.b #.b J R H =.s =.H K } D P K H -.K R H K K *.V.R | -.6.Z.-.:.K -.M K z R P I H I R K ) T K U 7 T =.T b K G m v B T :.Y.",
"T -.K T v =.T -.H -._.R U K F =.V.) R L R M K T T K R K ' Z.} -.n.-.2.r.R M r K K P H F < ' K R V H H R T R R K q.T a.> R K R -.",
"H T K Y M + r ; Q R U T F R H U m T R K K H P } A R I A R R R ` -.I R } H T M , K P < v f K 7.H K q [.(.T L.N.I K e l } m * e T ",
"} ] m *.H H U v O.%.R Y U U U M -.P K K K R H.;.K T R T I 9.` | q.R S.T K K K 7 A K A H K I -.] 8 z Z P ;.R R M +.T -.( R R H u.",
"A ^ y x.R R j -.z R K &.z.F K I =.p.O.T P K V z P ` | Q.| -.A } } -.R I R A m =.V K R R I ` R K 9 p 8 # >.} > r -.e.} z H R R :.",
"Z R H u } x r R K d 7 7.j k.e 4.T H H H K A K K K T R s.[ I } } >.q.t.:.e.K M T R P Z :.} v =.g >.R K m T K -.=.X R T K H K `.K ",
"h 5 Z ! R 1.e.-.T j -.R U K R T m P H K p.R L P A R I N U.} -.-.>.t.;.:.-.K $ [ K A >.l K R K R -.K :.-.-.R T K -.I X -.:.&.K :.",
":.) =.R } R K T R E.K J K s H T H K M &.K ' =.T m H P ` ` I =.' q.5.] K Z c z I R T H.K U =.&.R -.| U R oX-.>.=.R R &.R 6.S >.P ",
"&.=.].K T =.R H K E.T H H T H T -.H K T e m m H H Z I A } | H.] y.} K M M H v A I ] R -.R M -.Q.:.:.R R ` -.].R ) z H R T R -.-.",
"R R ) K ,.R ] U U Z K K R :.T T P Z P A.{ A R T M K Z A I ` l.` w.' I v b m F K T ] P -.R =.T.,.R t.R K M U m T P ] K I -.R R i.",
"&.[ K X.c.r.R R q.K M _.R {.M J H K R W T I K M a.I M A A I A I K K A M ( H K R =.R R K -.-.| R -.&.=.K R U T &.L.R R R R R T T ",
"I W K L } R -.g.T K @ R %.T =.R T %.&.&.T Z Z H ( T K I V K S v R A T K F H I R 9.T 2.=.=.p.:.=.K *.r I R 3.-.R !.R =.K L &.T R ",
"R *.R R R 0.a.=.K U R R U m K K T  .T -.A R U R Z P K A A I I I A S K } T K *.R T ) R T -.R =.-.=.8 &.R ` } U ` R R } I H R R R ",
"R &.*.q.&.R -.T -.R P A R / K R T P T R H j R R ] P Z T M M K M K K K F K l.R =.R -.R -.*.>.=.:.&.U o.m K R &.R :.=.` &.R -.C R ",
":.R -.V v K =.&.n.R R I 9 R r Z e 2.T R K }.C R J K K K ^ m M m v K R =.R :.K T 8.T R &.-.&.=.=.-.R & R K K T K.w R K =.oX,.=.=.",
"9 ,.9 ~ :.=.} ` K J.U R x R T j.H :.9 R 8 7 z -.U R K :.K K M V M Z R v 8 ] R ^.} -.-.-.' T R R =.K A R T R &.R *.U %.K F =.-.R ",
"U.` %.-.] -.} R U R } T O.R R &.T R =.=.T N ).R U x H ` H K H Z P I T R K R =.` R &.&.-.-.T U -.` K R R K R R K T R =.-.T m r :."
};
