/* XPM */
static char *_82fd908784c4caec777cbca4e136240q4L06Nph9BixSzcC[] = {
/* columns rows colors chars-per-pixel */
"64 64 240 2 ",
"   c None",
".  c #03090A",
"X  c #0D0F14",
"o  c #0E0F19",
"O  c #120E17",
"+  c #0B1515",
"@  c #13131B",
"#  c #141619",
"$  c #16271D",
"%  c #0C2714",
"&  c #1C1522",
"*  c #1C1B23",
"=  c #151921",
"-  c #0F1D22",
";  c #211B25",
":  c #271C2B",
">  c #2A1D31",
",  c #1B2726",
"<  c #1F3021",
"1  c #2B232D",
"2  c #252A2A",
"3  c #28352C",
"4  c #2B2833",
"5  c #332435",
"6  c #332B35",
"7  c #3B2C3B",
"8  c #362839",
"9  c #2C3735",
"0  c #3D343D",
"q  c #353737",
"w  c #34342B",
"e  c #24211F",
"r  c #43313E",
"t  c #3D443C",
"y  c #3A4735",
"u  c #2F4B31",
"i  c #3A7638",
"p  c #41493B",
"a  c #49533C",
"s  c #3B2842",
"d  c #3C3443",
"f  c #452D45",
"g  c #433444",
"h  c #4B354C",
"j  c #4B3B4B",
"k  c #463747",
"l  c #543949",
"z  c #4B3751",
"x  c #533C53",
"c  c #583B58",
"v  c #5B3860",
"b  c #3B4644",
"n  c #464849",
"m  c #52444D",
"M  c #495748",
"N  c #5E4B5D",
"B  c #584457",
"V  c #4B5551",
"C  c #575759",
"Z  c #4F5050",
"A  c #63495D",
"S  c #645557",
"D  c #556659",
"F  c #546D53",
"G  c #5E4762",
"H  c #5D5864",
"J  c #634462",
"K  c #6B4C6B",
"L  c #684B65",
"P  c #6C536B",
"I  c #685766",
"U  c #74576C",
"Y  c #745473",
"T  c #755A72",
"R  c #7C5A7C",
"E  c #785778",
"W  c #704F72",
"Q  c #5C6764",
"!  c #68666A",
"~  c #687768",
"^  c #74756B",
"/  c #6B6A71",
"(  c #7D627C",
")  c #786A78",
"_  c #777878",
"`  c #707270",
"'  c #835C7D",
"]  c #84657B",
"[  c #84767E",
"{  c #69846A",
"}  c #768877",
"|  c #7B947B",
" . c #6F8C6E",
".. c #5B8362",
"X. c #85977D",
"o. c #7C5C83",
"O. c #7D6382",
"+. c #7A7A82",
"@. c #855E83",
"#. c #846383",
"$. c #8B658A",
"%. c #8C6B8B",
"&. c #886985",
"*. c #926B8D",
"=. c #897687",
"-. c #92738C",
";. c #947C8E",
":. c #926C92",
">. c #9A6B95",
",. c #947393",
"<. c #9A7495",
"1. c #9C749A",
"2. c #9D7B9B",
"3. c #987A96",
"4. c #8D6F93",
"5. c #A17B9E",
"6. c #A4789B",
"7. c #A7788D",
"8. c #9E79A1",
"9. c #A47CA2",
"0. c #AA7DA4",
"q. c #A77AA7",
"w. c #B07DAB",
"e. c #7C9183",
"r. c #7EB486",
"t. c #858686",
"y. c #92898E",
"u. c #889687",
"i. c #9C8399",
"p. c #998795",
"a. c #969898",
"s. c #8F9292",
"d. c #A3829D",
"f. c #A4899A",
"g. c #AC969B",
"h. c #98A697",
"j. c #8EA78C",
"k. c #A2A99B",
"l. c #A9AF9B",
"z. c #9D82A2",
"x. c #9C9BA2",
"c. c #A483A3",
"v. c #AA83A6",
"b. c #AC8AA6",
"n. c #AC83AB",
"m. c #AD8AAC",
"M. c #A588A7",
"N. c #B28BAD",
"B. c #B285AC",
"V. c #AA9AA9",
"C. c #B494AD",
"Z. c #B48BB3",
"A. c #B98DB5",
"S. c #BA8EB9",
"D. c #B388B4",
"F. c #AD93B1",
"G. c #B492B2",
"H. c #BA93B5",
"J. c #BC93BB",
"K. c #BD9CBA",
"L. c #B49BB6",
"P. c #AF85B1",
"I. c #9EADA4",
"U. c #A6A9A6",
"Y. c #B5AAAD",
"T. c #ACB5AC",
"R. c #AAB7A7",
"E. c #B2B9AB",
"W. c #BBA6B7",
"Q. c #B4BBB4",
"!. c #B7B9B6",
"~. c #AEB3B1",
"^. c #C29ABD",
"/. c #C396BE",
"(. c #C4A6BB",
"). c #C2B9BA",
"_. c #C6B0A8",
"`. c #B4C4AA",
"'. c #BAC3B4",
"]. c #BCC3BA",
"[. c #B9C7B8",
"{. c #B2C9AD",
"}. c #B1D79C",
"|. c #C3CABE",
" X c #C3C5BA",
".X c #C2D3BE",
"XX c #BCB8C1",
"oX c #B59BC1",
"OX c #C59BC2",
"+X c #C599C3",
"@X c #C8A6C6",
"#X c #C8B8C7",
"$X c #D5B4CC",
"%X c #D8B6D8",
"&X c #D1AFCB",
"*X c #E4B8DF",
"=X c #BDC6C1",
"-X c #BCD5C3",
";X c #C4C4C3",
":X c #C4CCC3",
">X c #C9C7C9",
",X c #D3CBCD",
"<X c #D4C8CA",
"1X c #C5D2C5",
"2X c #CBD3C4",
"3X c #CCD3CB",
"4X c #CADAC7",
"5X c #D2D7CD",
"6X c #CBCAD3",
"7X c #D8CAD7",
"8X c #D4D4D4",
"9X c #DCD4D3",
"0X c #DCDBDC",
"qX c #D7D6D8",
"wX c #CDD4D2",
"eX c #E3DBDB",
"rX c #E6D9DA",
"tX c #E1C5DD",
"yX c #D9E4DA",
"uX c #CFE5CD",
"iX c #E4DDE2",
"pX c #EBDDE7",
"aX c #E5CAE6",
"sX c #DEEAE2",
"dX c #E4E2E3",
"fX c #EBE3E5",
"gX c #EDE5EA",
"hX c #EEE9EC",
"jX c #E7EAE5",
"kX c #F2EBED",
"lX c #F3E8EC",
"zX c #F4EDF2",
"xX c #F9EEF5",
"cX c #F6EAF3",
"vX c #F5F1F4",
"bX c #FAF2F6",
"nX c #FCF4F9",
"mX c #FDF9FB",
"MX c #ECEFEB",
"NX c #DEE1E2",
/* pixels */
"                                                    ;X!.;X6X8X5X:XNX=XqX].>X`                                                   ",
"                                      >X8XhXhXpXgXkXgXgXgXcXdXdXfXcXNXhXNXgXjXhXiXgXQ.:X|.                                      ",
"                            T.9X0XzXhXpXfXhXgXlXgXiXNX6Xx.s.+.t._ t.y.V.XX6XqXgXgX0X=X7XdXgXiXpX9X[.                            ",
"                    a.0XnXdX0XkXgXcX0X6X/ ^ `.qXhXgXwXXX6XqX6XU.6X6X!.6X=X#XqXNXqXX.! D 6X6XgXcXkXcXdXeXlXs.                    ",
"              a hXhXhXcXvXxX0Xs.` yXdX6X~.e.H V b b d u 9 9 9 q u d q 9 9 q 9 n V s.+.e.a.8Xk.! x.iXhXNXpXdXgXpXa.              ",
"              dXcXxXpXqX! 5XNX>Xe.C b 9 4 3 , $ - , = o o o @ @ @ @ = @ = = , 9 d b b d V Q / s.qX8X{.` x.6XeXgXlXcXfX          ",
"              vXzXgXY.iXU.Q n 9 3 , + - o o O X + X X o + X X o + X o + @ o - - @ = = & * d 9 b b / a.XX=X=X=.qXzXlXlX          ",
"              vXgXhX>XNXs.- # - @ o + o o o X . X + O @ & & & & ; 1 > * 4 > > : : @ = = * = * * * 9 b b Q e.~.8XkXcXcX          ",
"              zXMXzX,XiXU.= O O O O O O O O @ = & & : : > 5 5 s s z f s 1 k s g 0 s 7 8 8 5 2 1 > : 1 1 , ! bX>XgXkXbX          ",
"              vXgXMX<XfX~.= O X O O O # # & : : > 5 4 4 8 f 5 h z J x h J x k d k j j h z z d z h d 8 5 7 !.bX2XgXkXxX          ",
"              kXhXzX>XkXU., X O O O & ; : w 8 5 : * 5 s 5 J s G v K v c ( 5 8 j k d d c B n m B x c m x j >XbXeXkXkXkX          ",
"              lXNXdX).cX!.# X O O O : & & 6 & * 5 & : f B E j ! W o.K K $.8 : x z 7 z d d n z G G G L N B 0XnXrXxXkXlX          ",
"              hXhXbX,XxX#X, X @ O & & & @ > 1 f h c c v K %.J @.E $.@.o.>.s : A G L K J G G B &.=.c P I L eXmX0XzXkXxX          ",
"              hXzXvX,XnX#X2 O @ & ; : > 5 f W ` c v K K O.:.K $.$.$.$.@.c.f 5 K W Y Y W W P T 3.,.L E ( c fXmXdXxXbXfX          ",
"              dXzXzX<XhXY.9 6 ; : > > 5 r h v v v K W K %.=.E :.:.1.$.@.F.h 5 Y Y E Y W t.Y o.i.i.P &.%.m lXnX8XhXfXhX          ",
"              iXzXgX#XxX;Xq q 1 5 5 > s h v K K W W @.' <.v.#.<.6.1.4.4.Z.B 7 E #.o.@.#.i.R &.M.M.( 4.M.r hXkX,XbXnXbX          ",
"              vXzXgX>XiX~.q + 5 8 r r s x J W W Y @.@.R ,.;X$.9.0.9.8.1.@Xx f O.#.#.#.&.$.$.;.M.m.( 3.2.L.zXmXiXxXkXbX          ",
"              vXcXzX,XdX>Xb * 7 g k r ! ^ [ =.[ =.=.&.] M.a.,.q.n.n.n.9.@XA [ =.y.s.s.y.y.s.t.V.F.#.i.3.3.vXmXeXbXxXvX          ",
"              xXzXkX9XxX#XV 1 g j r k x +.K P E o.o.%.! o.4.1.Z.P.n.1.9.oX#.&.O.O.) o.o.o.o.o./ o.( 9.M.M.vXmXfXbXkXvX          ",
"              vXcXxXeXnX>XC 1 d j I P Y R :.*.4.:.8.9.9.v.n.n.n.n.D.9.n.M.m.P.n.v.q.2.1.9.9.<.,.,.d.c.c.m.mXmXrXxXkXkX          ",
"              zXkXzX9XxX>XH 5 f k m P T $.&.4.1.2.5.n.B.P.m.J.J.P.A.Z.P.V.G.n.P.n.c.9.q.9.8.2.9.i.9.q.c.F.zXmXeXbXkXvX          ",
"              vXzXcXeXnX>XD 6 k j N T R U.4.4.8.m.b.i.p.J.Z.G.J.w.S.D.Z.%X8.n.M.M.M.8.1.z.s.c.=.9.5.m.M.F.bXmXiXmXcXcX          ",
"              vXgXxX,XxX,X/ 8 h m I A : : 1 4 6 5 7 6 7 I A.P.D.n.Z.J.fX@XP r g j j d k n k g z.v.<.N.n.K.nXmXpXbXlXkX          ",
"              MXzXxXrXcX6X/ 8 h j P K r l S ) A A K I E 9.J.+XS.n.J.Z.B.&XU l ' ] &.V.i.wX] $.OXbX&.c.m.W.bXmXeXxXbXhX          ",
"              kXkXvX9XxX7X/ 7 j x S P A U I U E -.*.G.,.D.M.D.S.n.#XS.n.1XT A 1.<.f.g.5XY.cX5.@Xn.#.v.m.F.nXmXeXxXhXkX          ",
"              vXbXnXrXxX6X/ 6 j x I Y J Y $.*.w.0.w.w.6.D.c.P.G.n.P.v.v.*X#.L ,.b.yXf.n.2.$X0.@Xv.5.n.m.W.nXmXrXzXlXzX          ",
"              nXnXxX9XcX<X` 7 x z I ( Y P >.6.d.w.6.q.6.S.A./.S.P.Z.n.5.%X&.K 6.sXn.b.v.W.9.D.V.A.v.H.n.(.mXnXrXmXkXlX          ",
"              hXzXxX9XcX<X` 7 h z L T U L >.1.w.w.w.q.9.A.A.D.H.P.G.&XC.%X*.P f.n.n.w.n.D.<.n.@Xv.9.D.n.K.mXnXrXbXbXlX          ",
"              nXcXxX,XcX7XI 7 x c I T W [ @.1.q.6.q.0.0.D.D.m.A.Z.A.$X_.%X@.U 6.n.N.v.b.d.9.N.@X0.c.n.G.K.bXnXfXbXzXkX          ",
"              zXvXkXrXzX3XV 6 k x J T K ' *.*.1.6.>.2.6.A.v.D.H.v.A.$XtX%X$.] 8.n.iXjX2.0.0.B.^.b.0.Z.G.(.nXnXrXzXlXkX          ",
"              zXvXnX9XzX>XM w r c I P #.W $.>.%.&.<.6.q.J.n.n.Z.A.Z.Y.G.%X] R 5.b.@XY.<.q.;.H.^.9.v.N.b._ nXnXrXzXlXvX          ",
"              hXxXvX9X8XU.M q j z G W [ pXK.L.E.#XXX#X#XJ.n.Z.H.D.C.V.N.%X#.M.<X,X$X#X>X#X#X$X/.*Xv.N.L.p.nXnXrXkXMXkX          ",
"              xXkXnX9XhX!.Z 4 z z G M.L.V.U.oX&X&XK.(.@X@XP.Z.#Xn.m.9.n.%XU. XY.!.$X%X@XXXK.(.K.,.v.n.S.i.nXnXrXgXfXkX          ",
"              vXzXxX9XhX;XZ q k x d g x c L P K K W K P Y E Z.H.H.J.S.J.1.@.#.R Y @.R o.o.Y o.E ' v.D.J.W.nXnXrXcXlXgX          ",
"              nXkXvX>XdX~.` 0 k B P ( 4.1.8.m.@XD.S.J.K.+XOX@XJ.D.A.Z.G.J.S./.D.J.Z.#XZ.D.D.N.w.v.N.Z.m.Y.nXmXiXlXkXhX          ",
"              vXxXxX,XgX;XQ 7 j B U E $.1.8.b.2.O.6.D.b.@X/.J.Z.n.^.H.J.&X+X+X/.OX@Xy.H <.n.n.n.v.B./.G.(.mXnXfXlXgXfX          ",
"              gXhXvX<XhX;XH 6 z m I Y &.,.5.3.3.Y o.6.D.D.(.+XA.P.+XA.S.OX/.S./.H.M.p.P T %.9.q.9.n.G.B.W.mXnXfXlXgXeX          ",
"              kXvXbX).dX~.Q q j x ) i.m.V.C.F.M.i.m.@X@X%XpX<.N.n.K.S.J.<XaXaX7X%X$XF.M.W.L.&XW.&Xb.N.d.).mXnXzXfXkX9X          ",
"              hXkXxX).kX>X/ w j m N 0 4 6 7 d g h j j j G Z.J.H.B.@X+XJ.@XN J J N B C G I G I =.9.9.b.9.@XvXbXvXlXkX>X          ",
"              dXzXxX).yX=XQ 6 d m B L e r g x x c B x L w.M.K./.c.S././.+X,.0 N U Y =.U.R #.c.K.v.5.b.i.#XmXmXvXgXkX>X          ",
"              iXhXvX5XkX!.~ 9 j n B I 5 l ' Y ' <.*.:.*.q.0.J.+Xw.m.OX+X@X%.A $.-.<.,.%.*.-.K.(.d.c.N.c.>XmXbXnXlXkX).          ",
"              vXvXxX<XkX>X~ d j x S A f K ' >.<.6.B.B.6.A.9./.+Xn.N.J.OXOX%.S <.1.9.9.f.,.3.u.^.d.9.G.m.>XmXbXnXlXfX!.          ",
"              dXvXkX,XcX>X` d j z N L l ' &.@.6.d.A.B.<.n.:./.OX9.^.J.J.@X&.P 1.9.b.q.9.9.5.y./.f.v.m.G.6XmXbXbXlXcXx.          ",
"              bXxXvX,XMX!.D 6 j m H A l T &.&.6.0.B.B.2.D.6.OX+X0.K.OXOX@X#.T b.m.n.v.n.6.d.<X_.6.d.n.c.-XmXbXbXgXzXa.          ",
"              fXvXnX,XvXR.Q q r m I A l T E ] ,.5.v.v.6.Z.1.+X+X6.C.^.^.@X] P v.b.N.b.B.d.d.7X(.;.d.N.d.].mXbXvXkXlX            ",
"              zXzXcX,XkX XD 7 q j S U l W E ] &.-.6.6.<.9.<.J.G.0.+X^.H.OX( T b.>XN.v.b.d.s.(.C.&.d.N.f.yXmXxXbXlXlX            ",
"              kXzXkX8XzX!.M 0 k m S A l U U ] &.*.*.<.;.:.6.K.^.7.^./.H.J.&.T y.N.N.N.V.c.j.@X7.] f.b.b.yXmXkXnXlXfX            ",
"              hXcXgXY.MX;XV , j m l P f U ' ' &.$.-.*.,.,.5.H.H.*.^.^.Z.@X( T f.Y.N.P.u.b.N.#X-.] 5.3.#XyXmXkXbXkXkX            ",
"              dXlXkXfXgX>Xy < h m m A ^ t.f.W.).#X#X(.!.i.,.f.J.] ^.H.G.^.&.G.@X&X@X$X(.^.Y.b.7.] ;.f.Y.0XmXkXxXlXfX            ",
"              dXjXkXfXkX>XV 6 k j m !.@X#X).#X%X%X%X*XtXaX+._ M.' G.K.C.@X7X7X,X<X&X$X$X).!.W.#XS -.f.Z E.mXlXlXfXfX            ",
"              5XdX XeX9X[.C , j j w B J P T Y ( R [ O.T $.j 3.) ' /.^.N.<.&.:.:.-.&.&.=.&.<.,.%.X.;.;.] 3XmX7XpXeXE.            ",
"              [.0XdX'.k.~.~ 2 g g m ] -.( =.=.=.O.i.B.p.M.` 3./ A B.G.b.M.;.f.=.M.[ =.[ ;.3.i.i.7.f.-.] 1XrX9Xj.2X>X            ",
"              U.h.[.R.R.| D 1 4 0 p P ) Z ! ` I ! =._ ` ;.=.M.! l C.B.v.i.=._ / / [ ) ) i.&.=.;.=.%.` ! 5X X2XU.`.u.            ",
"              u.u.} | X.u.F ; 5 7 0 B I $.I R ) -.) =.) t.=.t./ l f.[ p._ ) / ( ! ) ) ! ! ) / ] _ ! C S j.} t.| { X.            ",
"              ~ }  .{ | ..< $ . . . . . . X + X X + + + $ < y y 9 &.T ^ / ) / Q I T C C I C H ! I C C H  .u. .} ~  .            ",
"              ~ } | ~ ~  .< % . . . . . + + + + + $ , 3 2 4 u 9 , , , = $ , , 3 , , 2 p # , , - , n b 3 X.j.| u. .F             ",
"              F { ~ Q ~ | u % % , + # # # # * 2 , , 2 2 9 q n q 3 , 3 , , 4 3 9 9 9 n 9 9 , - 3 , 2 F w u.h.} r.~ {             ",
"              b Q ~ ~ {  .3 u M F i i ..Q ~ } } Q }  .u.} | | u.I.R.I.e.h.e.s.j.s.e.~ ` } } } _ D C V F V ~  .|  .|             ",
"              e u M M V M ..h...{ | R.a.I.I.E.~.R.T.R.I.R.R.R.h.{.E.[.Q.[.].[.[.Q.'.Q.!.!.E.=XQ.} } u D F w 3 M 3 <             ",
"      j.`.[.R.k.R.'.j.h.|.5XyXl.!.|.k.l.R.R.[.R.E.Q.T.k.Q.T.].l.yX[.T.E.1X].|.=X:X5X>X2X;X1X4X'.5X2X1X'.1X[.k.R.4X4XI.wXuX-X    ",
"    1X3X XR.'.T.).2X2X:X;XY.|.4Xl.E.E.E.uX X4X X).R.h.a..X.XU.E.mXQ.k.4X5X].[.`.'.R.[.].'.T.3X6X|.|.'.R.'.E.E.Q.E.'.T.k.U.R.h.  ",
"  R.].=X2X5X).5X2X!.;X|.5X,X X'.Q.Q. X|.|.:X|. X:X:XsXeX!.:X|.!.vX:X:X3X5XT.5X:X[.[.2X}.4X:X2X.XQ.|.3X|..X[.4X[.[.). X|.].1X`.  ",
"` 5X5X4X`.Q.uXuXsX.Xl.E.jXMX2XMX.X).<X5XjXyXjXuX3X3X X|.3XMXuXuXyXsX{.`.4X4X-XyX{.`.4X.XuXuX[.{.[.[.[.uX{.[.[.'..X4X'.`.T.;X-X4X",
"~ n n t t q p w w y w q w p a M V F ~ ~ ~ } ^ j.X.X.{.h.X.X.iXI.F t a M y y b y y p y y a t y y a p y y y p y M y q q t y p p w "
};
