/* XPM */
static char *a5a9fa983f4b47f39bced3778a273ab4ospmkA5zklsUpGIU[] = {
/* columns rows colors chars-per-pixel */
"64 64 176 2 ",
"   c None",
".  c #020202",
"X  c #090907",
"o  c #070909",
"O  c #0B0B0C",
"+  c #0D0404",
"@  c #120203",
"#  c #190204",
"$  c #110D0E",
"%  c #1E0D0A",
"&  c #12110F",
"*  c #0E0F10",
"=  c #0F1112",
"-  c #131414",
";  c #1A1616",
":  c #181817",
">  c #151718",
",  c #16191A",
"<  c #1B1B1B",
"1  c #280508",
"2  c #390705",
"3  c #29130F",
"4  c #351009",
"5  c #370C10",
"6  c #271614",
"7  c #261718",
"8  c #391A15",
"9  c #321619",
"0  c #351817",
"q  c #20201F",
"w  c #3F221D",
"e  c #1C1F20",
"r  c #1E2123",
"t  c #222424",
"y  c #242728",
"u  c #252A2C",
"i  c #2B2C2C",
"p  c #302727",
"a  c #352B2B",
"s  c #3C2A2B",
"d  c #2A2F31",
"f  c #3B2F32",
"g  c #2D3234",
"h  c #2F3639",
"j  c #333434",
"k  c #313639",
"l  c #343A3C",
"z  c #3B3C3C",
"x  c #430207",
"c  c #450609",
"v  c #450D0A",
"b  c #5B0309",
"n  c #4E1106",
"m  c #4E1309",
"M  c #46120A",
"N  c #511207",
"B  c #54140A",
"V  c #5B1206",
"C  c #411C1B",
"Z  c #491317",
"A  c #5A1B1F",
"S  c #610208",
"D  c #69050C",
"F  c #7E060E",
"G  c #681408",
"H  c #711507",
"J  c #461C20",
"K  c #482621",
"L  c #4F272A",
"P  c #5D2227",
"I  c #49322D",
"U  c #52352F",
"Y  c #4A3839",
"T  c #642D33",
"R  c #41413F",
"E  c #363D40",
"W  c #3B3F41",
"Q  c #374042",
"!  c #3D4144",
"~  c #3F484B",
"^  c #434343",
"/  c #42464A",
"(  c #45494B",
")  c #4B4B4C",
"_  c #494947",
"`  c #5C4C49",
"'  c #51514D",
"]  c #454D52",
"[  c #4C4F50",
"{  c #4C5154",
"}  c #4C5459",
"|  c #4F595D",
" . c #465055",
".. c #545454",
"X. c #505759",
"o. c #555A5C",
"O. c #5C5C5C",
"+. c #7E4649",
"@. c #75544E",
"#. c #645557",
"$. c #535C61",
"%. c #5B5F61",
"&. c #5E6162",
"*. c #5D696E",
"=. c #59646A",
"-. c #5E6A70",
";. c #646464",
":. c #636769",
">. c #67696A",
",. c #6B6B6B",
"<. c #696766",
"1. c #616D73",
"2. c #6B6E70",
"3. c #647177",
"4. c #6E7273",
"5. c #657279",
"6. c #6A767B",
"7. c #6A787E",
"8. c #737474",
"9. c #7C7C7C",
"0. c #747A7C",
"q. c #84040C",
"w. c #8C050C",
"e. c #93040C",
"r. c #9C040D",
"t. c #8C0C13",
"y. c #9A0811",
"u. c #A7050E",
"i. c #A8050E",
"p. c #B00913",
"a. c #841F25",
"s. c #83302A",
"d. c #C70A15",
"f. c #D90A16",
"g. c #CF1E1D",
"h. c #E00B17",
"j. c #DF1F22",
"k. c #8F4146",
"l. c #986467",
"z. c #8A7F7D",
"x. c #88807E",
"c. c #6B7980",
"v. c #7E7F80",
"b. c #717E85",
"n. c #7C8284",
"m. c #75848C",
"M. c #7F8588",
"N. c #838383",
"B. c #8C8B8B",
"V. c #888985",
"C. c #8F908B",
"Z. c #93948F",
"A. c #808C91",
"S. c #949494",
"D. c #9C9C9C",
"F. c #A4A39F",
"G. c #969DA1",
"H. c #A4A3A3",
"J. c #ABACA6",
"K. c gray67",
"L. c #ABABAB",
"P. c #B4B5AF",
"I. c #B1B1B1",
"U. c #B4B4B4",
"Y. c #BABBB5",
"T. c #B6B7B8",
"R. c #B9B9BA",
"E. c #BDBDBD",
"W. c #BCBDBB",
"Q. c #C2C3BD",
"!. c #BFC0C0",
"~. c #C1C1C1",
"^. c #C6C6C6",
"/. c #C0C0C0",
"(. c #CCCCCB",
"). c #D7D8D7",
/* pixels */
"                                                                                                                                ",
"                                                                                                                                ",
"                                                                                                                                ",
"                                                                                                                                ",
"                                                                                                                                ",
"                                                                                                                                ",
"                                                                                                                                ",
"                                                                                                                                ",
"                                                                                                                                ",
"                                                                                                                                ",
"                                                                                                                                ",
"                                                    -                                                                           ",
"                                                    &.                                                                          ",
"                                                    }                                                                           ",
"                                              .     %.        !                                                                 ",
"                                          l   : . r 0.9.    i o.                                                                ",
"                                          [ .., j e 4...- . O.,.  ,                                                             ",
"                                          ..{ : * e :.) j _ z , - <                                                             ",
"                                        , W n.l i ^ ^ j ..D.S.B.<., O 4.                                                        ",
"                                      i $ e , t j _ O.B.K m % t ; a 8.:                                                         ",
"                                i i g H.D.y e l ..) z.B 3 d y ( ;.a O 2., ^                                                     ",
"                                , y u ) L.j i _ a F.m C z ( h 1.) O.W t ( :                                                     ",
"                            X.l l _ ( ( E.v.! ..I.U B g ;.O.W ] y N.k ..j y , L.                                                ",
"                            e u y _ #.&.R.B._ j E.v 8 [ ..[ ~ c...F.t X.j ..g =                                                 ",
"                            , d o.;.;...I.N.^ R I.B ; ( ( k E G.B.L.<.l ..8.e d , W                                             ",
"                          e u d d [ 8.4.H.N.R z T.N > r - d M.E.>.) ^.9.W ,.j y u -                                             ",
"                        o e r ! _ ,.9.4.K.N.R _ E.5 , y $.v.T.^.<.n.(./.N...l O y e                                             ",
"                        | d y &.Y ,.8.4.T.B.^ ;.8.<.& W N.B.I.~.(.).(.T.9...O.- u 5. .                                          ",
"                      ] c.*.r d / ,.,.;.Q.B.) ' O.S.j y 9.N.n n w 8 V I ;.^ >.i :.5.]                                           ",
"                        ] 1.-.} g o.<.^ ~.S.O.,.8.;.W y %.F.z.G g.j.B H.^ t ;._ *.z                                             ",
"                        S Z b.:.*.X...9.E.N.;.,.8.9.<.y / v.I.Z.s.V T.H...8.4._ c 5 O                                           ",
"                      . b i.e.f 7.*.5.T.K.^ ) o.;.9.N.V.R ] b.U.@.` /._ x.8.o.^ e.+.9.                                          ",
"                       .2 r.i.u.w.J $.1.$.^ 0.<.,.%.8.B.S.S.l v.D.L.R V.2.,.2.N.A B.8.                    &                     ",
"                    e c._ 5 b w.i.i.r.w.> d ( <.....v.8.B.S.S.[ t t B.<.&.^ ;.$ D.D._ j                 R (.R                   ",
"                    o h v.T.D.s x q.u.+ u y l O.&.R 9.9.v.B.C.S.B.B.B.8.,.[ [ v.K._ q F.:           j J.Q.Q.<.t                 ",
"                    / e e E H.~.D.L q.O u d l O.O...>...4.v.<.4.8.>.v./ <.;.' E.j y ,.K.t ,       & Q.W.8.q q Y 9 ^             ",
"                    c.E , r j ! K.D.P @ u u d ..;.,.2.] ;.v.[ <.8.%.9.k &.,._ i u o.I.;.{ 8.      ; F.j : O y #.Z +             ",
"                    d -.*.o.< , / K.Y # y r r h #.<.<.o.<.9.) 8.8.) ,...,._ ^ j W D.8.S.o.          : - , z 9.&.l               ",
"                  z < > l M.E.K.d 8.#.# u u u d y O.<.,.2.4.[ h k &.4.<...{ t e _ S.>.( Y           O d >.4.O e i               ",
"                  W e > , y z I.S.} E @ 6 h u u d y k ^ ( E W 6 p E ..%.a / y E J.o.;.&.O.        $ A ;.i - < a z R             ",
"                    < i | k ..>.H./.H.D.2 M t g d d u y E < H G H 9 r e e ] *.} u ....v.8.    > ! ,.2 O : < < q y a             ",
"                    1., < y h <.#.) _ W.: t t y < , > : - ; d I.z.g y y u y > e r d 2.[ O o d >.8.& . & q < y < < _             ",
"                    , m.] r y ..:...;.T.r { , i j > > &.j , 2.a.k.t > [ - - - e  .] g [ >.^ 8.j .     X ; < q q i <.R           ",
"                    * g ] 5.-.7.E.!.E.j < = O O = - > > - > } T l.y $ t ! c.c.b.} , ^ >.<.j -   . < j R q : q Z.J.Y.).          ",
"                      ~ ! ..j t y a > d d d d d d k ..) l K.S.$.O.S._ ..j O e o k u z e e .     : t 7 < q q C.Q.Q.Q.C.z         ",
"                      h ! &.;.>.,.>.r 5.=.~ g r e t j ^ D.E.9 c 0 F.v.[ _ . < E W ( E ..>..   . : < < < R F.Y.V.x.q             ",
"                        = g h >.;.O.y * l | =.-.-.-.1.G./.3 y.f.p.C E.G...@ g [ 2.,.,.;.O     - i < t ;.P.Q.Y.R .               ",
"                            o { _ .     = E ] r u p < + 1 b d.f.h.q.t f . ; y ,.>.<.j o       ..Z.J.Y.Q.Q.Q.)                   ",
"                              . .       y k :.8.< : O . . 1 D d.t.s a .   . . O.^ O         & C.Q.Q.Y.Q.J.y                     ",
"                                        u g ! 9.S.! ^   . g h { N...j .                     z S.P...; O .                       ",
"                                        g ) l g : t o   . o.y d , r u                       ' j X                               ",
"                                        r k r r z l t     u d r i z j                                                           ",
"                                              . .                                                                               ",
"                                                                                                                                ",
"                                                                                                                                ",
"                                                                                                                                ",
"                                                                                                                                ",
"                                                                                                                                ",
"                                                                                                                                ",
"                                                                                                                                ",
"                                                                                                                                ",
"                                                                                                                                ",
"                                                                                                                                ",
"                                                                                                                                "
};
